<svg width="1000" height="1000" viewBox="0 0 1000 1000" fill="none" xmlns="http://www.w3.org/2000/svg">
<path d="M500 1000C223.9 1000 0 776.1 0 500C0 223.9 223.9 0 500 0C776.1 0 1000 223.9 1000 500C1000 776.1 776.1 1000 500 1000Z" fill="#5181B8"/>
<path fill-rule="evenodd" clip-rule="evenodd" d="M819 344.5C823.6 329 819 317.7 796.9 317.7H724C705.5 317.7 696.9 327.5 692.3 338.3C692.3 338.3 655.2 428.7 602.7 487.4C585.7 504.4 578 509.8 568.7 509.8C564.1 509.8 557.4 504.4 557.4 488.9V344.5C557.4 326 552 317.7 536.6 317.7H422C410.4 317.7 403.4 326.3 403.4 334.5C403.4 352.1 429.7 356.1 432.4 405.6V513C432.4 536.5 428.1 540.8 418.9 540.8C394.2 540.8 334.1 450 298.4 346.1C291.4 325.9 284.4 317.8 265.8 317.8H192.9C172.1 317.8 167.9 327.6 167.9 338.4C167.9 357.7 192.6 453.5 283 580.2C343.3 666.7 428.1 713.6 505.4 713.6C551.7 713.6 557.5 703.2 557.5 685.2V619.8C557.5 599 561.9 594.8 576.6 594.8C587.4 594.8 606 600.2 649.2 641.9C698.6 691.3 706.8 713.5 734.6 713.5H807.5C828.3 713.5 838.7 703.1 832.7 682.5C826.1 662 802.5 632.3 771.2 597C754.2 576.9 728.7 555.3 721 544.5C710.2 530.6 713.3 524.4 721 512.1C720.9 512.1 809.7 387 819 344.5Z" fill="white"/>
</svg>