<svg width="7" height="12" viewBox="0 0 7 12" fill="none" xmlns="http://www.w3.org/2000/svg">
<path d="M0.734856 5.77317L5.61302 0.895092C5.72585 0.782177 5.87646 0.719971 6.03706 0.719971C6.19765 0.719971 6.34826 0.782177 6.46109 0.895092L6.82033 1.25425C7.0541 1.48828 7.0541 1.86864 6.82033 2.10231L2.72402 6.19863L6.82488 10.2995C6.93771 10.4124 7 10.5629 7 10.7234C7 10.8841 6.93771 11.0346 6.82488 11.1477L6.46564 11.5067C6.35272 11.6196 6.2022 11.6818 6.0416 11.6818C5.88101 11.6818 5.73039 11.6196 5.61757 11.5067L0.734856 6.62418C0.621762 6.51091 0.559645 6.35967 0.560002 6.1989C0.559645 6.0375 0.621762 5.88635 0.734856 5.77317Z" fill="#D8D8D8"/>
</svg>
