<svg width="7" height="12" viewBox="0 0 7 12" fill="none" xmlns="http://www.w3.org/2000/svg">
<path d="M6.26514 6.62868L1.38698 11.5068C1.27415 11.6197 1.12354 11.6819 0.962943 11.6819C0.802348 11.6819 0.651735 11.6197 0.538909 11.5068L0.179666 11.1476C-0.0540959 10.9136 -0.0540959 10.5332 0.179666 10.2995L4.27598 6.20322L0.175121 2.10236C0.062295 1.98944 0 1.83892 0 1.67842C0 1.51773 0.062295 1.36721 0.175121 1.2542L0.534364 0.895138C0.647279 0.782223 0.797803 0.720016 0.958398 0.720016C1.11899 0.720016 1.26961 0.782223 1.38243 0.895138L6.26514 5.77767C6.37824 5.89095 6.44035 6.04218 6.44 6.20296C6.44035 6.36435 6.37824 6.5155 6.26514 6.62868Z" fill="#D8D8D8"/>
</svg>
