<svg width="13" height="17" viewBox="0 0 13 17" fill="none" xmlns="http://www.w3.org/2000/svg">
<path fill-rule="evenodd" clip-rule="evenodd" d="M8.14935 1.87532C7.66114 1.54911 7.08716 1.375 6.5 1.375C5.71264 1.375 4.95753 1.68778 4.40078 2.24453C3.84403 2.80128 3.53125 3.55639 3.53125 4.34375C3.53125 4.93091 3.70537 5.50489 4.03158 5.9931C4.35779 6.48131 4.82144 6.86182 5.36391 7.08652C5.90638 7.31121 6.50329 7.37001 7.07918 7.25546C7.65506 7.14091 8.18404 6.85816 8.59922 6.44297C9.01441 6.02779 9.29716 5.49881 9.41171 4.92292C9.52626 4.34704 9.46747 3.75013 9.24277 3.20766C9.01807 2.66519 8.63756 2.20153 8.14935 1.87532ZM4.19091 0.887954C4.8744 0.43126 5.67797 0.1875 6.5 0.1875C7.60231 0.1875 8.65947 0.625389 9.43891 1.40484C10.2184 2.18429 10.6563 3.24144 10.6563 4.34375C10.6563 5.16578 10.4125 5.96935 9.9558 6.65284C9.4991 7.33633 8.84998 7.86905 8.09053 8.18362C7.33107 8.4982 6.49539 8.58051 5.68916 8.42014C4.88292 8.25977 4.14235 7.86392 3.56109 7.28266C2.97983 6.7014 2.58398 5.96083 2.42361 5.15459C2.26324 4.34836 2.34555 3.51268 2.66013 2.75322C2.9747 1.99377 3.50742 1.34465 4.19091 0.887954ZM11.25 16.8125H12.4375V13.8438C12.4375 12.7414 11.9996 11.6843 11.2202 10.9048C10.4407 10.1254 9.38356 9.6875 8.28125 9.6875H4.71875C3.61644 9.6875 2.55929 10.1254 1.77984 10.9048C1.00039 11.6843 0.5625 12.7414 0.5625 13.8438V16.8125H1.75V13.8438C1.75 13.0564 2.06278 12.3013 2.61953 11.7445C3.17628 11.1878 3.93139 10.875 4.71875 10.875H8.28125C8.67111 10.875 9.05716 10.9518 9.41734 11.101C9.77753 11.2502 10.1048 11.4689 10.3805 11.7445C10.6561 12.0202 10.8748 12.3475 11.024 12.7077C11.1732 13.0678 11.25 13.4539 11.25 13.8438V16.8125Z" fill="#3F3E3E"/>
</svg>
