<?xml version="1.0" encoding="UTF-8" standalone="no"?><!DOCTYPE svg PUBLIC "-//W3C//DTD SVG 1.1//EN" "http://www.w3.org/Graphics/SVG/1.1/DTD/svg11.dtd"><svg width="186px" height="73px" viewBox="0 0 186 73" version="1.1" xmlns="http://www.w3.org/2000/svg" xmlns:xlink="http://www.w3.org/1999/xlink" xml:space="preserve" xmlns:serif="http://www.serif.com/" style="fill-rule:evenodd;clip-rule:evenodd;stroke-linejoin:round;stroke-miterlimit:2;"><g id="PHPShop6"><path id="path-2" d="M9.544,46.28l0,-7.56l4.212,0c5.652,0 10.188,-3.024 10.188,-8.856c0,-5.22 -3.636,-8.784 -9.648,-8.784l-10.296,0l0,25.2l5.544,0Zm4.392,-12.492l-4.392,0l0,-7.704l4.284,0c2.772,0 4.5,1.332 4.5,3.816c0,2.232 -1.62,3.888 -4.392,3.888Zm17.496,12.492l0,-10.116l10.224,0l0,10.116l5.544,0l0,-25.2l-5.544,0l0,9.972l-10.224,0l0,-9.972l-5.544,0l0,25.2l5.544,0Zm25.2,0l0,-7.56l4.212,0c5.652,0 10.188,-3.024 10.188,-8.856c0,-5.22 -3.636,-8.784 -9.648,-8.784l-10.296,0l0,25.2l5.544,0Zm4.392,-12.492l-4.392,0l0,-7.704l4.284,0c2.772,0 4.5,1.332 4.5,3.816c0,2.232 -1.62,3.888 -4.392,3.888Zm20.916,12.852c5.436,0 9.252,-2.808 9.252,-7.812c0,-4.464 -2.88,-6.3 -7.992,-7.632c-4.356,-1.116 -5.436,-1.656 -5.436,-3.312c0,-1.296 1.116,-2.268 3.24,-2.268c2.124,0 4.32,0.936 6.552,2.484l2.88,-4.176c-2.556,-2.052 -5.688,-3.204 -9.36,-3.204c-5.148,0 -8.82,3.024 -8.82,7.596c0,5.076 3.276,6.48 8.352,7.776c4.212,1.08 5.076,1.8 5.076,3.204c0,1.548 -1.368,2.448 -3.636,2.448c-2.88,0 -5.256,-1.188 -7.524,-3.06l-3.276,3.924c3.024,2.7 6.876,4.032 10.692,4.032Zm16.812,-0.36l0,-10.764c0,-2.592 1.332,-3.924 3.42,-3.924c2.088,0 3.312,1.332 3.312,3.924l0,10.764l5.472,0l0,-12.492c0,-4.428 -2.412,-7.164 -6.552,-7.164c-2.772,0 -4.392,1.476 -5.652,3.096l0,-9.72l-5.472,0l0,26.28l5.472,0Zm24.264,0.432c6.012,0 10.476,-4.5 10.476,-10.044c0,-5.616 -4.428,-10.044 -10.404,-10.044c-6.012,0 -10.476,4.5 -10.476,10.044c0,5.616 4.428,10.044 10.404,10.044Zm0.072,-4.716c-3.024,0 -5.076,-2.484 -5.076,-5.328c0,-2.916 1.872,-5.328 5.004,-5.328c3.024,0 5.076,2.484 5.076,5.328c0,2.916 -1.872,5.328 -5.004,5.328Zm17.676,10.044l0,-8.28c1.296,1.548 3.096,2.88 6.012,2.88c4.572,0 8.784,-3.528 8.784,-9.972c0,-6.516 -4.284,-10.044 -8.784,-10.044c-2.844,0 -4.68,1.332 -6.012,3.132l0,-2.772l-5.472,0l0,25.056l5.472,0Zm4.608,-10.044c-2.556,0 -4.68,-2.124 -4.68,-5.328c0,-3.276 2.124,-5.4 4.68,-5.4c2.556,0 4.716,2.124 4.716,5.328c0,3.312 -2.16,5.4 -4.716,5.4Zm27.456,4.716c5.472,0 9.612,-3.564 9.612,-8.712c0,-5.328 -3.852,-8.1 -8.856,-8.1c-2.484,0 -3.96,0.792 -5.22,1.62c0.36,-3.312 1.944,-5.832 5.076,-5.832c2.16,0 3.492,0.756 5.148,2.016l2.916,-4.284c-2.232,-1.764 -4.464,-2.772 -7.884,-2.772c-7.524,0 -11.052,5.976 -11.052,13.752c0,5.076 1.152,7.776 2.988,9.612c1.764,1.764 3.996,2.7 7.272,2.7Zm-0.216,-4.752c-2.736,0 -4.392,-1.62 -4.392,-3.744c0,-2.196 1.584,-3.708 4.32,-3.708c2.736,0 4.392,1.548 4.392,3.672c0,2.232 -1.584,3.78 -4.32,3.78Z" style="fill:#fff;fill-rule:nonzero;"/><path id="path-21" serif:id="path-2" d="M9.544,46.28l0,-7.56l4.212,0c5.652,0 10.188,-3.024 10.188,-8.856c0,-5.22 -3.636,-8.784 -9.648,-8.784l-10.296,0l0,25.2l5.544,0Zm4.392,-12.492l-4.392,0l0,-7.704l4.284,0c2.772,0 4.5,1.332 4.5,3.816c0,2.232 -1.62,3.888 -4.392,3.888Zm17.496,12.492l0,-10.116l10.224,0l0,10.116l5.544,0l0,-25.2l-5.544,0l0,9.972l-10.224,0l0,-9.972l-5.544,0l0,25.2l5.544,0Zm25.2,0l0,-7.56l4.212,0c5.652,0 10.188,-3.024 10.188,-8.856c0,-5.22 -3.636,-8.784 -9.648,-8.784l-10.296,0l0,25.2l5.544,0Zm4.392,-12.492l-4.392,0l0,-7.704l4.284,0c2.772,0 4.5,1.332 4.5,3.816c0,2.232 -1.62,3.888 -4.392,3.888Zm20.916,12.852c5.436,0 9.252,-2.808 9.252,-7.812c0,-4.464 -2.88,-6.3 -7.992,-7.632c-4.356,-1.116 -5.436,-1.656 -5.436,-3.312c0,-1.296 1.116,-2.268 3.24,-2.268c2.124,0 4.32,0.936 6.552,2.484l2.88,-4.176c-2.556,-2.052 -5.688,-3.204 -9.36,-3.204c-5.148,0 -8.82,3.024 -8.82,7.596c0,5.076 3.276,6.48 8.352,7.776c4.212,1.08 5.076,1.8 5.076,3.204c0,1.548 -1.368,2.448 -3.636,2.448c-2.88,0 -5.256,-1.188 -7.524,-3.06l-3.276,3.924c3.024,2.7 6.876,4.032 10.692,4.032Zm16.812,-0.36l0,-10.764c0,-2.592 1.332,-3.924 3.42,-3.924c2.088,0 3.312,1.332 3.312,3.924l0,10.764l5.472,0l0,-12.492c0,-4.428 -2.412,-7.164 -6.552,-7.164c-2.772,0 -4.392,1.476 -5.652,3.096l0,-9.72l-5.472,0l0,26.28l5.472,0Zm24.264,0.432c6.012,0 10.476,-4.5 10.476,-10.044c0,-5.616 -4.428,-10.044 -10.404,-10.044c-6.012,0 -10.476,4.5 -10.476,10.044c0,5.616 4.428,10.044 10.404,10.044Zm0.072,-4.716c-3.024,0 -5.076,-2.484 -5.076,-5.328c0,-2.916 1.872,-5.328 5.004,-5.328c3.024,0 5.076,2.484 5.076,5.328c0,2.916 -1.872,5.328 -5.004,5.328Zm17.676,10.044l0,-8.28c1.296,1.548 3.096,2.88 6.012,2.88c4.572,0 8.784,-3.528 8.784,-9.972c0,-6.516 -4.284,-10.044 -8.784,-10.044c-2.844,0 -4.68,1.332 -6.012,3.132l0,-2.772l-5.472,0l0,25.056l5.472,0Zm4.608,-10.044c-2.556,0 -4.68,-2.124 -4.68,-5.328c0,-3.276 2.124,-5.4 4.68,-5.4c2.556,0 4.716,2.124 4.716,5.328c0,3.312 -2.16,5.4 -4.716,5.4Zm27.456,4.716c5.472,0 9.612,-3.564 9.612,-8.712c0,-5.328 -3.852,-8.1 -8.856,-8.1c-2.484,0 -3.96,0.792 -5.22,1.62c0.36,-3.312 1.944,-5.832 5.076,-5.832c2.16,0 3.492,0.756 5.148,2.016l2.916,-4.284c-2.232,-1.764 -4.464,-2.772 -7.884,-2.772c-7.524,0 -11.052,5.976 -11.052,13.752c0,5.076 1.152,7.776 2.988,9.612c1.764,1.764 3.996,2.7 7.272,2.7Zm-0.216,-4.752c-2.736,0 -4.392,-1.62 -4.392,-3.744c0,-2.196 1.584,-3.708 4.32,-3.708c2.736,0 4.392,1.548 4.392,3.672c0,2.232 -1.584,3.78 -4.32,3.78Z" style="fill:url(#_Linear1);fill-rule:nonzero;"/></g><defs><linearGradient id="_Linear1" x1="0" y1="0" x2="1" y2="0" gradientUnits="userSpaceOnUse" gradientTransform="matrix(176.448,1.02145,-1.02145,176.448,4,35.5035)"><stop offset="0" style="stop-color:#7bf2e9;stop-opacity:1"/><stop offset="0.06" style="stop-color:#63dbe3;stop-opacity:1"/><stop offset="0.12" style="stop-color:#62cfe7;stop-opacity:1"/><stop offset="0.29" style="stop-color:#73afeb;stop-opacity:1"/><stop offset="0.36" style="stop-color:#7ba1ed;stop-opacity:1"/><stop offset="0.68" style="stop-color:#9c63f5;stop-opacity:1"/><stop offset="0.75" style="stop-color:#a362e9;stop-opacity:1"/><stop offset="0.81" style="stop-color:#a961dd;stop-opacity:1"/><stop offset="0.87" style="stop-color:#ae60d1;stop-opacity:1"/><stop offset="0.94" style="stop-color:#b25fc6;stop-opacity:1"/><stop offset="1" style="stop-color:#b65eba;stop-opacity:1"/></linearGradient></defs></svg>