<svg width="100" height="100" viewBox="0 0 100 100" fill="none" xmlns="http://www.w3.org/2000/svg">
<path d="M25.4613 41.7232H19.262V40.5055L18.9299 38.7712L19.262 35.5609L19.0775 32.9409L19.262 29.3616L18.6716 25.7085L20.0738 23.3838L19.262 17H25.4613L64.7971 21.8708V37.4428L25.4613 41.7232Z" stroke="black" stroke-width="0.590406"/>
<path d="M74 18H67C65.8954 18 65 18.919 65 20.0526V21.9474C65 23.081 65.8954 24 67 24H74C75.1046 24 76 23.081 76 21.9474V20.0526C76 18.919 75.1046 18 74 18Z" stroke="black" stroke-width="0.590406"/>
<path d="M74 35H67C65.8954 35 65 36.0722 65 37.3947V39.6053C65 40.9278 65.8954 42 67 42H74C75.1046 42 76 40.9278 76 39.6053V37.3947C76 36.0722 75.1046 35 74 35Z" stroke="black" stroke-width="0.590406"/>
<path d="M74 24H67C65.8954 24 65 24.8369 65 25.8693V33.1307C65 34.1631 65.8954 35 67 35H74C75.1046 35 76 34.1631 76 33.1307V25.8693C76 24.8369 75.1046 24 74 24Z" stroke="black" stroke-width="0.590406"/>
<path d="M65.2116 21.2841L65.0267 21.0552L64.7977 21.2401L64.9827 21.469L65.2116 21.2841Z" fill="black"/>
<path d="M64.8792 36.9961L65.136 37.3142L64.9064 37.4996L64.6495 37.1816L64.8792 36.9961Z" fill="black"/>
<path d="M25.9779 41.3506C26.1116 41.3506 26.0336 24.8685 25.9779 16.6274" stroke="black" stroke-width="0.590406"/>
<rect x="76.295" y="21.295" width="2.91" height="16.41" stroke="black" stroke-width="0.59"/>
<path d="M82.705 35.2109L80.295 37.3448V21.5705L82.705 23.2776V35.2109Z" stroke="black" stroke-width="0.59"/>
<path d="M25.4613 76.7232H19.262V75.5055L18.9299 73.7712L19.262 70.5609L19.0775 67.9409L19.262 64.3616L18.6716 60.7085L20.0738 58.3838L19.262 52H25.4613L64.7971 56.8708V72.4428L25.4613 76.7232Z" stroke="black" stroke-width="0.590406"/>
<path d="M74 53H67C65.8954 53 65 53.919 65 55.0526V56.9474C65 58.081 65.8954 59 67 59H74C75.1046 59 76 58.081 76 56.9474V55.0526C76 53.919 75.1046 53 74 53Z" stroke="black" stroke-width="0.590406"/>
<path d="M74 70H67C65.8954 70 65 71.0722 65 72.3947V74.6053C65 75.9278 65.8954 77 67 77H74C75.1046 77 76 75.9278 76 74.6053V72.3947C76 71.0722 75.1046 70 74 70Z" stroke="black" stroke-width="0.590406"/>
<path d="M74 59H67C65.8954 59 65 59.8369 65 60.8693V68.1307C65 69.1631 65.8954 70 67 70H74C75.1046 70 76 69.1631 76 68.1307V60.8693C76 59.8369 75.1046 59 74 59Z" stroke="black" stroke-width="0.590406"/>
<path d="M65.2116 56.2841L65.0267 56.0552L64.7977 56.2401L64.9827 56.469L65.2116 56.2841Z" fill="black"/>
<path d="M64.8792 71.9961L65.136 72.3142L64.9064 72.4996L64.6495 72.1816L64.8792 71.9961Z" fill="black"/>
<path d="M25.9779 76.3506C26.1116 76.3506 26.0336 59.8685 25.9779 51.6274" stroke="black" stroke-width="0.590406"/>
<rect x="76.295" y="56.295" width="2.91" height="16.41" stroke="black" stroke-width="0.59"/>
<path d="M82.705 70.2109L80.295 72.3448V56.5705L82.705 58.2776V70.2109Z" stroke="black" stroke-width="0.59"/>
</svg>
