<svg width="100" height="100" viewBox="0 0 100 100" fill="none" xmlns="http://www.w3.org/2000/svg">
<path d="M25.4613 41.7232H19.262V40.5055L18.9299 38.7712L19.262 35.5609L19.0775 32.9409L19.262 29.3616L18.6716 25.7085L20.0738 23.3838L19.262 17H25.4613L64.7971 21.8708V37.4428L25.4613 41.7232Z" stroke="black" stroke-width="0.590406"/>
<path d="M74 18H67C65.8954 18 65 18.919 65 20.0526V21.9474C65 23.081 65.8954 24 67 24H74C75.1046 24 76 23.081 76 21.9474V20.0526C76 18.919 75.1046 18 74 18Z" stroke="black" stroke-width="0.590406"/>
<path d="M74 35H67C65.8954 35 65 36.0722 65 37.3947V39.6053C65 40.9278 65.8954 42 67 42H74C75.1046 42 76 40.9278 76 39.6053V37.3947C76 36.0722 75.1046 35 74 35Z" stroke="black" stroke-width="0.590406"/>
<path d="M74 24H67C65.8954 24 65 24.8369 65 25.8693V33.1307C65 34.1631 65.8954 35 67 35H74C75.1046 35 76 34.1631 76 33.1307V25.8693C76 24.8369 75.1046 24 74 24Z" stroke="black" stroke-width="0.590406"/>
<path d="M65.2116 21.2841L65.0267 21.0552L64.7977 21.2401L64.9827 21.469L65.2116 21.2841Z" fill="black"/>
<path d="M64.8792 36.9961L65.136 37.3142L64.9064 37.4996L64.6495 37.1816L64.8792 36.9961Z" fill="black"/>
<path d="M25.9779 41.3506C26.1116 41.3506 26.0336 24.8685 25.9779 16.6274" stroke="black" stroke-width="0.590406"/>
<rect x="76.295" y="21.295" width="2.91" height="16.41" stroke="black" stroke-width="0.59"/>
<path d="M82.705 35.2109L80.295 37.3448V21.5705L82.705 23.2776V35.2109Z" stroke="black" stroke-width="0.59"/>
<path d="M49.6729 53.7196H50.6075M49.6729 54.2804H50.6075M44.5327 76.8505V74.1402M44.5327 76.8505C44.5327 76.9537 44.6164 77.0374 44.7196 77.0374H46.215C46.3182 77.0374 46.4019 76.9537 46.4019 76.8505M44.5327 76.8505V76.2897C44.5327 76.1865 44.6164 76.1028 44.7196 76.1028H46.215C46.3182 76.1028 46.4019 76.1865 46.4019 76.2897V76.8505M46.4019 76.8505V74.1402M46.4019 74.1402C46.4019 74.037 46.3182 73.9533 46.215 73.9533H44.7196C44.6164 73.9533 44.5327 74.037 44.5327 74.1402M46.4019 74.1402V74.6075C46.4019 74.7107 46.3182 74.7944 46.215 74.7944H44.7196C44.6164 74.7944 44.5327 74.7107 44.5327 74.6075V74.1402M44.5327 65.3551V62.6449M44.5327 65.3551C44.5327 65.4584 44.6164 65.5421 44.7196 65.5421H46.215C46.3182 65.5421 46.4019 65.4584 46.4019 65.3551M44.5327 65.3551V64.7944C44.5327 64.6912 44.6164 64.6075 44.7196 64.6075H46.215C46.3182 64.6075 46.4019 64.6912 46.4019 64.7944V65.3551M46.4019 65.3551V62.6449M46.4019 62.6449C46.4019 62.5416 46.3182 62.4579 46.215 62.4579H44.7196C44.6164 62.4579 44.5327 62.5416 44.5327 62.6449M46.4019 62.6449V63.1121C46.4019 63.2154 46.3182 63.2991 46.215 63.2991H44.7196C44.6164 63.2991 44.5327 63.2154 44.5327 63.1121V62.6449M44.5327 53.8598V51.1495M44.5327 53.8598C44.5327 53.963 44.6164 54.0467 44.7196 54.0467H46.215C46.3182 54.0467 46.4019 53.963 46.4019 53.8598M44.5327 53.8598V53.2991C44.5327 53.1958 44.6164 53.1121 44.7196 53.1121H46.215C46.3182 53.1121 46.4019 53.1958 46.4019 53.2991V53.8598M46.4019 53.8598V51.1495M46.4019 51.1495C46.4019 51.0463 46.3182 50.9626 46.215 50.9626H44.7196C44.6164 50.9626 44.5327 51.0463 44.5327 51.1495M46.4019 51.1495V51.6168C46.4019 51.7201 46.3182 51.8037 46.215 51.8037H44.7196C44.6164 51.8037 44.5327 51.7201 44.5327 51.6168V51.1495M46.6355 56.9439L46.6355 70.9626M56.2617 56.9439V71.1495M60 57.3178V71.0561M60.4673 57.3178V70.7757M49.7664 50.729H50.514M49.7664 51.2897H50.514M49.6729 65.4019H50.6075M49.6729 65.9626H50.6075M49.7664 62.4112H50.514M49.7664 62.972H50.514M49.6729 76.8972H50.6075M49.6729 77.4579H50.6075M49.7664 73.9065H50.514M49.7664 74.4673H50.514M35.0935 70.9626H39.8598C39.9114 70.9626 39.9533 70.9208 39.9533 70.8692V57.0374C39.9533 56.9858 39.9114 56.9439 39.8598 56.9439H35.0935C35.0418 56.9439 35 56.9858 35 57.0374V70.8692C35 70.9208 35.0418 70.9626 35.0935 70.9626ZM46.6361 79H49.6729C49.7245 79 49.7664 78.9582 49.7664 78.9065V49.0935C49.7664 49.0418 49.7245 49 49.6729 49H46.6822C46.6306 49 46.5888 49.0418 46.5888 49.0935V56.8738C46.5888 56.9254 46.5469 56.9673 46.4953 56.9673H40.2336C40.182 56.9673 40.1402 57.0091 40.1402 57.0607V70.8692C40.1402 70.9208 40.182 70.9626 40.2336 70.9626H46.4948C46.5466 70.9626 46.5885 71.0048 46.5882 71.0566L46.5426 78.906C46.5423 78.9578 46.5842 79 46.6361 79ZM60.0467 70.7757V71.1028C60.0467 71.1544 60.0049 71.1963 59.9533 71.1963H56.3551C56.3035 71.1963 56.2617 71.2381 56.2617 71.2897V78.9065C56.2617 78.9582 56.2198 79 56.1682 79H50.6075C50.5559 79 50.514 78.9582 50.514 78.9065V49.0935C50.514 49.0418 50.5559 49 50.6075 49H56.1682C56.2198 49 56.2617 49.0418 56.2617 49.0935V56.8727C56.2617 56.9247 56.3042 56.9668 56.3563 56.9661L59.9521 56.9217C60.0042 56.9211 60.0467 56.9631 60.0467 57.0152V57.271C60.0467 57.3226 60.0886 57.3645 60.1402 57.3645H60.3271C60.3787 57.3645 60.4206 57.3226 60.4206 57.271V57.015C60.4206 56.963 60.463 56.921 60.515 56.9215L64.9075 56.9663C64.9587 56.9669 65 57.0086 65 57.0598V71.1028C65 71.1544 64.9582 71.1963 64.9065 71.1963H60.5023C60.4507 71.1963 60.4089 71.1544 60.4089 71.1028V70.7757C60.4089 70.7241 60.367 70.6822 60.3154 70.6822H60.1402C60.0886 70.6822 60.0467 70.7241 60.0467 70.7757ZM44.7196 76.1963H46.4019C46.5051 76.1963 46.5888 76.1126 46.5888 76.0093V74.8879C46.5888 74.7846 46.5051 74.7009 46.4019 74.7009H44.7196C44.6164 74.7009 44.5327 74.7846 44.5327 74.8879V76.0093C44.5327 76.1126 44.6164 76.1963 44.7196 76.1963ZM43.8785 74.8879L44.4393 74.4206V76.5701L43.8785 76.1495V74.8879ZM44.7196 64.7009H46.4019C46.5051 64.7009 46.5888 64.6172 46.5888 64.514V63.3925C46.5888 63.2893 46.5051 63.2056 46.4019 63.2056H44.7196C44.6164 63.2056 44.5327 63.2893 44.5327 63.3925V64.514C44.5327 64.6172 44.6164 64.7009 44.7196 64.7009ZM43.8785 63.3925L44.4393 62.9252V65.0748L43.8785 64.6542V63.3925ZM44.7196 53.2056H46.4019C46.5051 53.2056 46.5888 53.1219 46.5888 53.0187V51.8972C46.5888 51.794 46.5051 51.7103 46.4019 51.7103H44.7196C44.6164 51.7103 44.5327 51.794 44.5327 51.8972V53.0187C44.5327 53.1219 44.6164 53.2056 44.7196 53.2056ZM43.8785 51.8972L44.4393 51.4299V53.5794L43.8785 53.1589V51.8972Z" stroke="black" stroke-width="0.5"/>
</svg>
