<svg width="100" height="100" viewBox="0 0 100 100" fill="none" xmlns="http://www.w3.org/2000/svg">
<path d="M24.7897 18.2768H18.5904V19.4945L18.2583 21.2288L18.5904 24.4391L18.4059 27.0591L18.5904 30.6384L18 34.2915L19.4022 36.6162L18.5904 43H24.7897L64.1255 38.1292V22.5572L24.7897 18.2768Z" stroke="black" stroke-width="0.590406"/>
<path d="M73.3284 42H66.3284C65.2238 42 64.3284 41.081 64.3284 39.9474V38.0526C64.3284 36.919 65.2238 36 66.3284 36H73.3284C74.4329 36 75.3284 36.919 75.3284 38.0526V39.9474C75.3284 41.081 74.4329 42 73.3284 42Z" stroke="black" stroke-width="0.590406"/>
<path d="M73.3284 25H66.3284C65.2238 25 64.3284 23.9278 64.3284 22.6053V20.3947C64.3284 19.0722 65.2238 18 66.3284 18H73.3284C74.4329 18 75.3284 19.0722 75.3284 20.3947V22.6053C75.3284 23.9278 74.4329 25 73.3284 25Z" stroke="black" stroke-width="0.590406"/>
<path d="M73.3284 36H66.3284C65.2238 36 64.3284 35.1631 64.3284 34.1307V26.8693C64.3284 25.8369 65.2238 25 66.3284 25H73.3284C74.4329 25 75.3284 25.8369 75.3284 26.8693V34.1307C75.3284 35.1631 74.4329 36 73.3284 36Z" stroke="black" stroke-width="0.590406"/>
<path d="M64.54 38.7159L64.3551 38.9448L64.1261 38.7599L64.3111 38.531L64.54 38.7159Z" fill="black"/>
<path d="M64.2076 23.0039L64.4644 22.6858L64.2348 22.5004L63.9779 22.8184L64.2076 23.0039Z" fill="black"/>
<path d="M25.3063 18.6494C25.44 18.6494 25.362 35.1315 25.3063 43.3726" stroke="black" stroke-width="0.590406"/>
<rect x="0.295" y="-0.295" width="2.91" height="16.41" transform="matrix(1 0 0 -1 75.3284 38.41)" stroke="black" stroke-width="0.59"/>
<path d="M82.0334 24.7891L79.6234 22.6552V38.4295L82.0334 36.7224V24.7891Z" stroke="black" stroke-width="0.59"/>
<path d="M24 55L26.5472 54H75.4528L78 55" stroke="black" stroke-width="0.59"/>
<path d="M24 53L26.5472 52H75.4528L78 53V74L75.5 75" stroke="black" stroke-width="0.59"/>
<path d="M24 58L26.5472 57H75.4528L78 58" stroke="black" stroke-width="0.59"/>
<path d="M24 61L26.5472 60H75.4528L78 61" stroke="black" stroke-width="0.59"/>
<path d="M24 64L26.5472 63H75.4528L78 64" stroke="black" stroke-width="0.59"/>
<path d="M24 74L26.5472 75H75.4528L78 74" stroke="black" stroke-width="0.59"/>
<path d="M24 71L26.5472 72H75.4528L78 71" stroke="black" stroke-width="0.59"/>
<path d="M24 68L26.5472 69H75.4528L78 68" stroke="black" stroke-width="0.59"/>
<path d="M24 65L26.5472 66H75.4528L78 65" stroke="black" stroke-width="0.59"/>
<path d="M24 50V78H18.9375L18.4688 73.8689L18.9375 70.1967L18 66.9836L18.9375 63.7705L18 60.0984L18.9375 55.9672V50H24Z" stroke="black" stroke-width="0.59"/>
<path d="M81.705 56.3958L79.295 53.7598V73.3499L81.705 71.2411V56.3958Z" stroke="black" stroke-width="0.59"/>
</svg>
