<svg width="100" height="100" viewBox="0 0 100 100" fill="none" xmlns="http://www.w3.org/2000/svg">
<path d="M25.4613 41.7232H19.262V40.5055L18.9299 38.7712L19.262 35.5609L19.0775 32.9409L19.262 29.3616L18.6716 25.7085L20.0738 23.3838L19.262 17H25.4613L64.7971 21.8708V37.4428L25.4613 41.7232Z" stroke="black" stroke-width="0.590406"/>
<path d="M74 18H67C65.8954 18 65 18.919 65 20.0526V21.9474C65 23.081 65.8954 24 67 24H74C75.1046 24 76 23.081 76 21.9474V20.0526C76 18.919 75.1046 18 74 18Z" stroke="black" stroke-width="0.590406"/>
<path d="M74 35H67C65.8954 35 65 36.0722 65 37.3947V39.6053C65 40.9278 65.8954 42 67 42H74C75.1046 42 76 40.9278 76 39.6053V37.3947C76 36.0722 75.1046 35 74 35Z" stroke="black" stroke-width="0.590406"/>
<path d="M74 24H67C65.8954 24 65 24.8369 65 25.8693V33.1307C65 34.1631 65.8954 35 67 35H74C75.1046 35 76 34.1631 76 33.1307V25.8693C76 24.8369 75.1046 24 74 24Z" stroke="black" stroke-width="0.590406"/>
<path d="M65.2116 21.2841L65.0267 21.0552L64.7978 21.2401L64.9827 21.469L65.2116 21.2841Z" fill="black"/>
<path d="M64.8792 36.9961L65.136 37.3142L64.9064 37.4996L64.6495 37.1816L64.8792 36.9961Z" fill="black"/>
<path d="M25.9779 41.3506C26.1116 41.3506 26.0336 24.8685 25.9779 16.6274" stroke="black" stroke-width="0.590406"/>
<rect x="76.295" y="21.295" width="2.91" height="16.41" stroke="black" stroke-width="0.59"/>
<path d="M82.705 35.2109L80.295 37.3448V21.5705L82.705 23.2776V35.2109Z" stroke="black" stroke-width="0.59"/>
<path d="M83 53H26V64.8105V77L83 76.5385V53Z" stroke="black" stroke-width="0.59"/>
<path d="M26 81V50H20.9375L20.4688 54.5737L20.9375 58.6394L20 62.1967L20.9375 65.7541L20 69.8196L20.9375 74.3935V81H26Z" stroke="black" stroke-width="0.59"/>
<line x1="26" y1="72.85" x2="82" y2="72.85" stroke="black" stroke-width="0.3" stroke-dasharray="1 1"/>
<line x1="26" y1="74.85" x2="82" y2="74.85" stroke="black" stroke-width="0.3" stroke-dasharray="1 1"/>
<line x1="26" y1="56.85" x2="82" y2="56.85" stroke="black" stroke-width="0.3" stroke-dasharray="1 1"/>
</svg>
