<svg width="100" height="100" viewBox="0 0 100 100" fill="none" xmlns="http://www.w3.org/2000/svg">
<path d="M81.705 22.7007L79.295 19.8137V41.3087L81.705 38.9991V22.7007Z" stroke="black" stroke-width="0.59"/>
<path d="M78 42.2461H24.0938V30.5002V18.3773L78 18.8363V42.2461Z" stroke="black" stroke-width="0.59"/>
<path d="M24 17V45H18.9375L18.4688 40.8689L18.9375 37.1967L18 33.9836L18.9375 30.7705L18 27.0984L18.9375 22.9672V17H24Z" stroke="black" stroke-width="0.59"/>
<path d="M24.7897 52.2768H18.5904V53.4945L18.2583 55.2288L18.5904 58.4391L18.4059 61.0591L18.5904 64.6384L18 68.2915L19.4022 70.6162L18.5904 77H24.7897L64.1255 72.1292V56.5572L24.7897 52.2768Z" stroke="black" stroke-width="0.590406"/>
<path d="M73.3284 76H66.3284C65.2238 76 64.3284 75.081 64.3284 73.9474V72.0526C64.3284 70.919 65.2238 70 66.3284 70H73.3284C74.433 70 75.3284 70.919 75.3284 72.0526V73.9474C75.3284 75.081 74.433 76 73.3284 76Z" stroke="black" stroke-width="0.590406"/>
<path d="M73.3284 59H66.3284C65.2238 59 64.3284 57.9278 64.3284 56.6053V54.3947C64.3284 53.0722 65.2238 52 66.3284 52H73.3284C74.433 52 75.3284 53.0722 75.3284 54.3947V56.6053C75.3284 57.9278 74.433 59 73.3284 59Z" stroke="black" stroke-width="0.590406"/>
<path d="M73.3284 70H66.3284C65.2238 70 64.3284 69.1631 64.3284 68.1307V60.8693C64.3284 59.8369 65.2238 59 66.3284 59H73.3284C74.433 59 75.3284 59.8369 75.3284 60.8693V68.1307C75.3284 69.1631 74.433 70 73.3284 70Z" stroke="black" stroke-width="0.590406"/>
<path d="M64.54 72.7159L64.3551 72.9448L64.1261 72.7599L64.3111 72.531L64.54 72.7159Z" fill="black"/>
<path d="M64.2076 57.0039L64.4644 56.6858L64.2348 56.5004L63.9779 56.8184L64.2076 57.0039Z" fill="black"/>
<path d="M25.3063 52.6494C25.44 52.6494 25.362 69.1315 25.3063 77.3726" stroke="black" stroke-width="0.590406"/>
<rect x="0.295" y="-0.295" width="2.91" height="16.41" transform="matrix(1 0 0 -1 75.3284 72.41)" stroke="black" stroke-width="0.59"/>
<path d="M82.0334 58.7891L79.6234 56.6552V72.4295L82.0334 70.7224V58.7891Z" stroke="black" stroke-width="0.59"/>
</svg>
