<svg width="100" height="100" viewBox="0 0 100 100" fill="none" xmlns="http://www.w3.org/2000/svg">
<path d="M80 42.2461H26.0938V30.5002V18.3773L80 18.8363V42.2461Z" stroke="black" stroke-width="0.59"/>
<path d="M26 17V45H20.9375L20.4688 40.8689L20.9375 37.1967L20 33.9836L20.9375 30.7705L20 27.0984L20.9375 22.9672V17H26Z" stroke="black" stroke-width="0.59"/>
<path d="M83.705 22.7007L81.295 19.8137V41.3087L83.705 38.9991V22.7007Z" stroke="black" stroke-width="0.59"/>
<path d="M49.6729 75.2804H50.6075M49.6729 74.7196H50.6075M44.5327 52.1495V54.8598M44.5327 52.1495C44.5327 52.0463 44.6164 51.9626 44.7196 51.9626H46.215C46.3182 51.9626 46.4019 52.0463 46.4019 52.1495M44.5327 52.1495V52.7103C44.5327 52.8135 44.6164 52.8972 44.7196 52.8972H46.215C46.3182 52.8972 46.4019 52.8135 46.4019 52.7103V52.1495M46.4019 52.1495V54.8598M46.4019 54.8598C46.4019 54.963 46.3182 55.0467 46.215 55.0467H44.7196C44.6164 55.0467 44.5327 54.963 44.5327 54.8598M46.4019 54.8598V54.3925C46.4019 54.2893 46.3182 54.2056 46.215 54.2056H44.7196C44.6164 54.2056 44.5327 54.2893 44.5327 54.3925V54.8598M44.5327 63.6449V66.3551M44.5327 63.6449C44.5327 63.5416 44.6164 63.4579 44.7196 63.4579H46.215C46.3182 63.4579 46.4019 63.5416 46.4019 63.6449M44.5327 63.6449V64.2056C44.5327 64.3088 44.6164 64.3925 44.7196 64.3925H46.215C46.3182 64.3925 46.4019 64.3088 46.4019 64.2056V63.6449M46.4019 63.6449V66.3551M46.4019 66.3551C46.4019 66.4584 46.3182 66.5421 46.215 66.5421H44.7196C44.6164 66.5421 44.5327 66.4584 44.5327 66.3551M46.4019 66.3551V65.8879C46.4019 65.7846 46.3182 65.7009 46.215 65.7009H44.7196C44.6164 65.7009 44.5327 65.7846 44.5327 65.8879V66.3551M44.5327 75.1402V77.8505M44.5327 75.1402C44.5327 75.037 44.6164 74.9533 44.7196 74.9533H46.215C46.3182 74.9533 46.4019 75.037 46.4019 75.1402M44.5327 75.1402V75.7009C44.5327 75.8042 44.6164 75.8879 44.7196 75.8879H46.215C46.3182 75.8879 46.4019 75.8042 46.4019 75.7009V75.1402M46.4019 75.1402V77.8505M46.4019 77.8505C46.4019 77.9537 46.3182 78.0374 46.215 78.0374H44.7196C44.6164 78.0374 44.5327 77.9537 44.5327 77.8505M46.4019 77.8505V77.3832C46.4019 77.2799 46.3182 77.1963 46.215 77.1963H44.7196C44.6164 77.1963 44.5327 77.2799 44.5327 77.3832V77.8505M46.6355 72.0561L46.6355 58.0374M56.2617 72.0561V57.8505M60 71.6822V57.9439M60.4673 71.6822V58.2243M49.7664 78.271H50.514M49.7664 77.7103H50.514M49.6729 63.5981H50.6075M49.6729 63.0374H50.6075M49.7664 66.5888H50.514M49.7664 66.028H50.514M49.6729 52.1028H50.6075M49.6729 51.5421H50.6075M49.7664 55.0935H50.514M49.7664 54.5327H50.514M35.0935 58.0374H39.8598C39.9114 58.0374 39.9533 58.0792 39.9533 58.1308V71.9626C39.9533 72.0142 39.9114 72.0561 39.8598 72.0561H35.0935C35.0418 72.0561 35 72.0142 35 71.9626V58.1308C35 58.0792 35.0418 58.0374 35.0935 58.0374ZM46.6361 50H49.6729C49.7245 50 49.7664 50.0418 49.7664 50.0935V79.9065C49.7664 79.9582 49.7245 80 49.6729 80H46.6822C46.6306 80 46.5888 79.9582 46.5888 79.9065V72.1262C46.5888 72.0746 46.5469 72.0327 46.4953 72.0327H40.2336C40.182 72.0327 40.1402 71.9909 40.1402 71.9393V58.1308C40.1402 58.0792 40.182 58.0374 40.2336 58.0374H46.4948C46.5466 58.0374 46.5885 57.9952 46.5882 57.9434L46.5426 50.094C46.5423 50.0422 46.5842 50 46.6361 50ZM60.0467 58.2243V57.8972C60.0467 57.8456 60.0049 57.8037 59.9533 57.8037H56.3551C56.3035 57.8037 56.2617 57.7619 56.2617 57.7103V50.0935C56.2617 50.0418 56.2198 50 56.1682 50H50.6075C50.5559 50 50.514 50.0418 50.514 50.0935V79.9065C50.514 79.9582 50.5559 80 50.6075 80H56.1682C56.2198 80 56.2617 79.9582 56.2617 79.9065V72.1273C56.2617 72.0753 56.3042 72.0332 56.3563 72.0339L59.9521 72.0783C60.0042 72.0789 60.0467 72.0369 60.0467 71.9848V71.729C60.0467 71.6774 60.0886 71.6355 60.1402 71.6355H60.3271C60.3787 71.6355 60.4206 71.6774 60.4206 71.729V71.985C60.4206 72.037 60.463 72.079 60.515 72.0785L64.9075 72.0337C64.9587 72.0331 65 71.9914 65 71.9402V57.8972C65 57.8456 64.9582 57.8037 64.9065 57.8037H60.5023C60.4507 57.8037 60.4089 57.8456 60.4089 57.8972V58.2243C60.4089 58.2759 60.367 58.3178 60.3154 58.3178H60.1402C60.0886 58.3178 60.0467 58.2759 60.0467 58.2243ZM44.7196 52.8037H46.4019C46.5051 52.8037 46.5888 52.8874 46.5888 52.9907V54.1122C46.5888 54.2154 46.5051 54.2991 46.4019 54.2991H44.7196C44.6164 54.2991 44.5327 54.2154 44.5327 54.1122V52.9907C44.5327 52.8874 44.6164 52.8037 44.7196 52.8037ZM43.8785 54.1122L44.4393 54.5794V52.4299L43.8785 52.8505V54.1122ZM44.7196 64.2991H46.4019C46.5051 64.2991 46.5888 64.3828 46.5888 64.486V65.6075C46.5888 65.7107 46.5051 65.7944 46.4019 65.7944H44.7196C44.6164 65.7944 44.5327 65.7107 44.5327 65.6075V64.486C44.5327 64.3828 44.6164 64.2991 44.7196 64.2991ZM43.8785 65.6075L44.4393 66.0748V63.9252L43.8785 64.3458V65.6075ZM44.7196 75.7944H46.4019C46.5051 75.7944 46.5888 75.8781 46.5888 75.9813V77.1028C46.5888 77.206 46.5051 77.2897 46.4019 77.2897H44.7196C44.6164 77.2897 44.5327 77.206 44.5327 77.1028V75.9813C44.5327 75.8781 44.6164 75.7944 44.7196 75.7944ZM43.8785 77.1028L44.4393 77.5701V75.4206L43.8785 75.8411V77.1028Z" stroke="black" stroke-width="0.5"/>
</svg>
