<svg width="100" height="100" viewBox="0 0 100 100" fill="none" xmlns="http://www.w3.org/2000/svg">
<path d="M81.705 22.7007L79.295 19.8137V41.3087L81.705 38.9991V22.7007Z" stroke="black" stroke-width="0.59"/>
<path d="M78 42.2461H24.0938V30.5002V18.3773L78 18.8363V42.2461Z" stroke="black" stroke-width="0.59"/>
<path d="M24 17V45H18.9375L18.4688 40.8689L18.9375 37.1967L18 33.9836L18.9375 30.7705L18 27.0984L18.9375 22.9672V17H24Z" stroke="black" stroke-width="0.59"/>
<path d="M81.705 55.7007L79.295 52.8137V74.3087L81.705 71.9991V55.7007Z" stroke="black" stroke-width="0.59"/>
<path d="M78 75.2461H24.0938V63.5002V51.3773L78 51.8363V75.2461Z" stroke="black" stroke-width="0.59"/>
<path d="M24 50V78H18.9375L18.4688 73.8689L18.9375 70.1967L18 66.9836L18.9375 63.7705L18 60.0984L18.9375 55.9672V50H24Z" stroke="black" stroke-width="0.59"/>
</svg>
