<svg width="100" height="100" viewBox="0 0 100 100" fill="none" xmlns="http://www.w3.org/2000/svg">
<path d="M81 17.7539H27.0938V29.4998V41.6227L81 41.1637V17.7539Z" stroke="black" stroke-width="0.59"/>
<path d="M27 43V15H21.9375L21.4688 19.1311L21.9375 22.8033L21 26.0164L21.9375 29.2295L21 32.9016L21.9375 37.0328V43H27Z" stroke="black" stroke-width="0.59"/>
<path d="M84.705 21.7007L82.295 18.8137V40.3087L84.705 37.9991V21.7007Z" stroke="black" stroke-width="0.59"/>
<path d="M83 53H26V64.8105V77L83 76.5385V53Z" stroke="black" stroke-width="0.59"/>
<path d="M26 81V50H20.9375L20.4688 54.5737L20.9375 58.6394L20 62.1967L20.9375 65.7541L20 69.8196L20.9375 74.3935V81H26Z" stroke="black" stroke-width="0.59"/>
<line x1="26" y1="72.85" x2="82" y2="72.85" stroke="black" stroke-width="0.3" stroke-dasharray="1 1"/>
<line x1="26" y1="74.85" x2="82" y2="74.85" stroke="black" stroke-width="0.3" stroke-dasharray="1 1"/>
<line x1="26" y1="56.85" x2="82" y2="56.85" stroke="black" stroke-width="0.3" stroke-dasharray="1 1"/>
</svg>
