<svg width="100" height="100" viewBox="0 0 100 100" fill="none" xmlns="http://www.w3.org/2000/svg">
<path d="M81.705 22.7007L79.295 19.8137V41.3087L81.705 38.9991V22.7007Z" stroke="black" stroke-width="0.59"/>
<path d="M78 42.2461H24.0938V30.5002V18.3773L78 18.8363V42.2461Z" stroke="black" stroke-width="0.59"/>
<path d="M24 17V45H18.9375L18.4688 40.8689L18.9375 37.1967L18 33.9836L18.9375 30.7705L18 27.0984L18.9375 22.9672V17H24Z" stroke="black" stroke-width="0.59"/>
<path d="M24 55L26.5472 54H75.4528L78 55" stroke="black" stroke-width="0.59"/>
<path d="M24 53L26.5472 52H75.4528L78 53V74L75.5 75" stroke="black" stroke-width="0.59"/>
<path d="M24 58L26.5472 57H75.4528L78 58" stroke="black" stroke-width="0.59"/>
<path d="M24 61L26.5472 60H75.4528L78 61" stroke="black" stroke-width="0.59"/>
<path d="M24 64L26.5472 63H75.4528L78 64" stroke="black" stroke-width="0.59"/>
<path d="M24 74L26.5472 75H75.4528L78 74" stroke="black" stroke-width="0.59"/>
<path d="M24 71L26.5472 72H75.4528L78 71" stroke="black" stroke-width="0.59"/>
<path d="M24 68L26.5472 69H75.4528L78 68" stroke="black" stroke-width="0.59"/>
<path d="M24 65L26.5472 66H75.4528L78 65" stroke="black" stroke-width="0.59"/>
<path d="M24 50V78H18.9375L18.4688 73.8689L18.9375 70.1967L18 66.9836L18.9375 63.7705L18 60.0984L18.9375 55.9672V50H24Z" stroke="black" stroke-width="0.59"/>
<path d="M81.705 56.3958L79.295 53.7598V73.3499L81.705 71.2411V56.3958Z" stroke="black" stroke-width="0.59"/>
</svg>
