<svg width="120" height="120" viewBox="0 0 120 120" fill="none" xmlns="http://www.w3.org/2000/svg">
<path d="M110.9 106H81.3" stroke="#BDC5D1" stroke-width="3" stroke-miterlimit="10" stroke-linecap="round" stroke-linejoin="round"/>
<path d="M58.7 106H8.69995" stroke="#BDC5D1" stroke-width="3" stroke-miterlimit="10" stroke-linecap="round" stroke-linejoin="round"/>
<path opacity="0.5" d="M91.6999 116.4H41.7" stroke="#BDC5D1" stroke-width="3" stroke-miterlimit="10" stroke-linecap="round" stroke-linejoin="round"/>
<path opacity="0.5" d="M54.8 63H4.80005" stroke="#BDC5D1" stroke-width="3" stroke-miterlimit="10" stroke-linecap="round" stroke-linejoin="round"/>
<path opacity="0.5" d="M38.7999 73.8H22.2" stroke="#BDC5D1" stroke-width="3" stroke-miterlimit="10" stroke-linecap="round" stroke-linejoin="round"/>
<path opacity="0.5" d="M75.9 82.6001H59.2" stroke="#BDC5D1" stroke-width="3" stroke-miterlimit="10" stroke-linecap="round" stroke-linejoin="round"/>
<path opacity="0.5" d="M13.7 73.8H9.40002" stroke="#BDC5D1" stroke-width="3" stroke-miterlimit="10" stroke-linecap="round" stroke-linejoin="round"/>
<path opacity="0.5" d="M30.7999 55.5H20.7" stroke="#BDC5D1" stroke-width="3" stroke-miterlimit="10" stroke-linecap="round" stroke-linejoin="round"/>
<path opacity="0.5" d="M112.2 116.4H106.6" stroke="#BDC5D1" stroke-width="3" stroke-miterlimit="10" stroke-linecap="round" stroke-linejoin="round"/>
<path opacity="0.5" d="M19.9 116.4H9.40002" stroke="#BDC5D1" stroke-width="3" stroke-miterlimit="10" stroke-linecap="round" stroke-linejoin="round"/>
<path opacity="0.5" d="M81.3 48.3H75.7" stroke="#BDC5D1" stroke-width="3" stroke-miterlimit="10" stroke-linecap="round" stroke-linejoin="round"/>
<path d="M118.1 95.6999H89.7V70.8999H113.7C116.1 70.8999 118.1 72.8999 118.1 75.2999V95.6999V95.6999Z" stroke="#BDC5D1" stroke-width="3" stroke-miterlimit="10" stroke-linecap="round" stroke-linejoin="round"/>
<path d="M108.4 56.2L111.8 70.6999" stroke="#BDC5D1" stroke-width="3" stroke-miterlimit="10" stroke-linecap="round" stroke-linejoin="round"/>
<path d="M15.8 39.0999V33.3999H89.7V95.6999H15.8V86.6999" stroke="#BDC5D1" stroke-width="3" stroke-miterlimit="10" stroke-linecap="round" stroke-linejoin="round"/>
<path d="M103 104.3C107.75 104.3 111.6 100.45 111.6 95.7001C111.6 90.9504 107.75 87.1001 103 87.1001C98.2503 87.1001 94.3999 90.9504 94.3999 95.7001C94.3999 100.45 98.2503 104.3 103 104.3Z" fill="#97A4AF"/>
<path d="M103 98.3001C104.436 98.3001 105.6 97.136 105.6 95.7001C105.6 94.2642 104.436 93.1001 103 93.1001C101.564 93.1001 100.4 94.2642 100.4 95.7001C100.4 97.136 101.564 98.3001 103 98.3001Z" fill="white"/>
<path d="M38.2999 104.3C43.0496 104.3 46.9 100.45 46.9 95.7001C46.9 90.9504 43.0496 87.1001 38.2999 87.1001C33.5503 87.1001 29.7 90.9504 29.7 95.7001C29.7 100.45 33.5503 104.3 38.2999 104.3Z" fill="#97A4AF"/>
<path d="M38.2999 98.3001C39.7359 98.3001 40.9 97.136 40.9 95.7001C40.9 94.2642 39.7359 93.1001 38.2999 93.1001C36.864 93.1001 35.7 94.2642 35.7 95.7001C35.7 97.136 36.864 98.3001 38.2999 98.3001Z" fill="white"/>
<path opacity="0.5" d="M19.2 7.1001C11 7.1001 4.5 13.8001 4.5 21.9001C4.5 26.2001 9.6 35.9001 18 47.6001C18.3 48.0001 18.7 48.2001 19.2 48.2001C19.7 48.2001 20.1 48.0001 20.4 47.6001C28.8 36.1001 34 26.4001 34 21.9001C34 13.8001 27.3 7.1001 19.2 7.1001Z" fill="#BDC5D1"/>
<path d="M14.9 1.6001C6.69998 1.6001 0.0999756 8.3001 0.0999756 16.4001C0.0999756 20.7001 5.19998 30.4001 13.6 42.1001C13.9 42.5001 14.3 42.7001 14.8 42.7001C15.3 42.7001 15.7 42.5001 16 42.1001C24.4 30.6001 29.5 20.9001 29.5 16.4001C29.6 8.3001 22.9 1.6001 14.9 1.6001Z" fill="#97A4AF"/>
<path d="M14.9 23.3C18.6555 23.3 21.7 20.2555 21.7 16.5C21.7 12.7444 18.6555 9.69995 14.9 9.69995C11.1444 9.69995 8.09998 12.7444 8.09998 16.5C8.09998 20.2555 11.1444 23.3 14.9 23.3Z" stroke="white" stroke-width="3" stroke-miterlimit="10" stroke-linecap="round" stroke-linejoin="round"/>
<path d="M108.4 56.2H89.7" stroke="#BDC5D1" stroke-width="3" stroke-miterlimit="10" stroke-linecap="round" stroke-linejoin="round"/>
</svg>
