<svg width="120" height="120" viewBox="0 0 120 120" fill="none" xmlns="http://www.w3.org/2000/svg">
<path d="M102.6 89.4999H42.8001L17.7001 32.0999H2.1001V24.8999H22.4001L47.5001 82.2999H102.6V89.4999Z" stroke="#BDC5D1" stroke-width="3" stroke-miterlimit="10" stroke-linecap="round" stroke-linejoin="round"/>
<path d="M66.7001 107.4C66.7001 113.3 61.9001 118.2 55.9001 118.2C49.9001 118.2 45.1001 113.4 45.1001 107.4C45.1001 101.4 50.0001 96.7 55.9001 96.7C61.8001 96.7 66.7001 101.5 66.7001 107.4Z" fill="#97A4AF"/>
<path d="M102.6 107.4C102.6 113.3 97.8 118.2 91.8 118.2C85.8 118.2 81 113.4 81 107.4C81 101.4 85.8 96.6001 91.8 96.6001C97.8 96.6001 102.6 101.5 102.6 107.4Z" fill="#97A4AF"/>
<path d="M95.1 107.4C95.1 109.2 93.6 110.7 91.8 110.7C90 110.7 88.5 109.2 88.5 107.4C88.5 105.6 90 104.1 91.8 104.1C93.6 104.1 95.1 105.6 95.1 107.4Z" fill="white"/>
<path d="M59.2001 107.4C59.2001 109.2 57.7001 110.7 55.9001 110.7C54.1001 110.7 52.6001 109.2 52.6001 107.4C52.6001 105.6 54.1001 104.1 55.9001 104.1C57.7001 104.2 59.2001 105.6 59.2001 107.4Z" fill="white"/>
<path opacity="0.5" d="M95.1 55.1999C108.852 55.1999 120 44.0518 120 30.2999C120 16.548 108.852 5.3999 95.1 5.3999C81.3481 5.3999 70.2 16.548 70.2 30.2999C70.2 44.0518 81.3481 55.1999 95.1 55.1999Z" fill="#BDC5D1"/>
<path opacity="0.5" d="M91.7999 51.8C105.552 51.8 116.7 40.6519 116.7 26.9C116.7 13.1481 105.552 2 91.7999 2C78.048 2 66.8999 13.1481 66.8999 26.9C66.8999 40.6519 78.048 51.8 91.7999 51.8Z" fill="white"/>
<path d="M91.8 1.80005C77.9 1.80005 66.7 13 66.7 26.9C66.7 40.8 77.9 52 91.8 52C105.7 52 116.9 40.8 116.9 26.9C116.9 13 105.7 1.80005 91.8 1.80005ZM104.5 34.5L99.4 39.6L91.8 32L84.2 39.6L79.1 34.5L86.7 26.9L79.1 19.3L84.2 14.2L91.8 21.8L99.4 14.2L104.5 19.3L96.9 26.9L104.5 34.5Z" fill="#97A4AF"/>
<path d="M91.8 60.8C78.1 60.8 66.4 52.1 61.8 40C61.6 39.6 61.2 39.3 60.8 39.3H39.6C38.8 39.3 38.3 40.1 38.6 40.8L52 74.4001C52.2 74.8001 52.6 75.1 53 75.1H101.7C102.2 75.1 102.6 74.8001 102.7 74.4001L109.4 57.7001C109.8 56.7001 108.7 55.8 107.8 56.3C103.2 59.2 97.7 60.8 91.8 60.8Z" fill="#BDC5D1"/>
</svg>
