<svg width="120" height="120" viewBox="0 0 120 120" fill="none" xmlns="http://www.w3.org/2000/svg">
<g clip-path="url(#clip0_20_24)">
<path d="M64.8 49.5001V91.3001L1.59998 81.4001V11.6001" stroke="#BDC5D1" stroke-width="3" stroke-miterlimit="10" stroke-linecap="round" stroke-linejoin="round"/>
<path d="M1.59998 11.6001L64.8 21.5001V34.6001" stroke="#BDC5D1" stroke-width="3" stroke-miterlimit="10" stroke-linecap="round" stroke-linejoin="round"/>
<path d="M105.7 10.3V79.4L64.8 91.3" stroke="#BDC5D1" stroke-width="3" stroke-miterlimit="10" stroke-linecap="round" stroke-linejoin="round"/>
<path d="M64.8 21.5L105.7 10.3" stroke="#BDC5D1" stroke-width="3" stroke-miterlimit="10" stroke-linecap="round" stroke-linejoin="round"/>
<path d="M1.59998 11.6L42.4 1.69995L105.7 10.3" stroke="#BDC5D1" stroke-width="3" stroke-miterlimit="10" stroke-linecap="round" stroke-linejoin="round"/>
<path opacity="0.5" d="M92.8 120C107.822 120 120 107.822 120 92.8001C120 77.778 107.822 65.6001 92.8 65.6001C77.7778 65.6001 65.6 77.778 65.6 92.8001C65.6 107.822 77.7778 120 92.8 120Z" fill="#BDC5D1"/>
<path d="M82.8 111.5C97.8221 111.5 110 99.3222 110 84.3001C110 69.278 97.8221 57.1001 82.8 57.1001C67.7778 57.1001 55.6 69.278 55.6 84.3001C55.6 99.3222 67.7778 111.5 82.8 111.5Z" fill="#97A4AF"/>
<path d="M81.2 76.5H87.9C92.2 76.5 95.7 80 95.7 84.3C95.7 88.6 92.2 92.1 87.9 92.1H69.9" stroke="white" stroke-width="3" stroke-miterlimit="10" stroke-linecap="round" stroke-linejoin="round"/>
<path d="M85.5 80.7L81.2 76.5L85.5 72.2" stroke="white" stroke-width="3" stroke-miterlimit="10" stroke-linecap="round" stroke-linejoin="round"/>
<path d="M79.9 17.3V34.6" stroke="#BDC5D1" stroke-width="3" stroke-miterlimit="10" stroke-linecap="round" stroke-linejoin="round"/>
<path d="M85 33L79.9 34.6" stroke="#BDC5D1" stroke-width="3" stroke-miterlimit="10" stroke-linecap="round" stroke-linejoin="round"/>
<path d="M95 29.8999L91.2 31.0999" stroke="#BDC5D1" stroke-width="3" stroke-miterlimit="10" stroke-linecap="round" stroke-linejoin="round"/>
<path d="M95 13.3V29.7001" stroke="#BDC5D1" stroke-width="3" stroke-miterlimit="10" stroke-linecap="round" stroke-linejoin="round"/>
<path d="M38.5 64.6001V75.5001" stroke="#BDC5D1" stroke-width="3" stroke-miterlimit="10" stroke-linecap="round" stroke-linejoin="round"/>
<path d="M46.1 65.6001V76.5001" stroke="#BDC5D1" stroke-width="3" stroke-miterlimit="10" stroke-linecap="round" stroke-linejoin="round"/>
<path opacity="0.5" d="M24.7999 32.4C26.512 32.4 27.9 31.012 27.9 29.2999C27.9 27.5879 26.512 26.2 24.7999 26.2C23.0879 26.2 21.7 27.5879 21.7 29.2999C21.7 31.012 23.0879 32.4 24.7999 32.4Z" stroke="#BDC5D1" stroke-width="3" stroke-miterlimit="10" stroke-linecap="round" stroke-linejoin="round"/>
<path d="M13.4 30.2C15.1121 30.2 16.5 28.8121 16.5 27.1C16.5 25.3879 15.1121 24 13.4 24C11.688 24 10.3 25.3879 10.3 27.1C10.3 28.8121 11.688 30.2 13.4 30.2Z" stroke="#97A4AF" stroke-width="3" stroke-miterlimit="10" stroke-linecap="round" stroke-linejoin="round"/>
</g>
<defs>
<clipPath id="clip0_20_24">
<rect width="120" height="120" fill="white"/>
</clipPath>
</defs>
</svg>
