<?xml version="1.0" encoding="UTF-8"?>
<svg width="16px" height="12px" viewBox="0 0 16 12" version="1.1" xmlns="http://www.w3.org/2000/svg" xmlns:xlink="http://www.w3.org/1999/xlink">
    <!-- Generator: sketchtool 53.2 (72643) - https://sketchapp.com -->
    <title>5ECC881D-A1DE-4F58-B9E4-4705890D8809</title>
    <desc>Created with sketchtool.</desc>
    <g id="Page-1" stroke="none" stroke-width="1" fill="none" fill-rule="evenodd">
        <g id="главная-" transform="translate(-117.000000, -210.000000)" fill="#343434" fill-rule="nonzero">
            <g id="Group-2" transform="translate(117.000000, 210.000000)">
                <path d="M15.0484581,0 L0.95154185,0 C0.422907489,0 0,0.444444444 0,1 C0,1.55555556 0.422907489,2 0.95154185,2 L15.0484581,2 C15.5770925,2 16,1.55555556 16,1 C16,0.444444444 15.5700441,0 15.0484581,0 Z" id="Path"></path>
                <path d="M15.0484581,5 L0.95154185,5 C0.422907489,5 0,5.44444444 0,6 C0,6.55555556 0.422907489,7 0.95154185,7 L15.0484581,7 C15.5770925,7 16,6.55555556 16,6 C16,5.44444444 15.5700441,5 15.0484581,5 Z" id="Path"></path>
                <path d="M15.0484581,10 L0.95154185,10 C0.422907489,10 0,10.4444444 0,11 C0,11.5555556 0.422907489,12 0.95154185,12 L15.0484581,12 C15.5770925,12 16,11.5555556 16,11 C16,10.4444444 15.5700441,10 15.0484581,10 Z" id="Path"></path>
            </g>
        </g>
    </g>
</svg>