<?xml version="1.0" encoding="UTF-8"?>
<svg width="20px" height="20px" viewBox="0 0 20 20" version="1.1" xmlns="http://www.w3.org/2000/svg" xmlns:xlink="http://www.w3.org/1999/xlink">
    <!-- Generator: Sketch 53.2 (72643) - https://sketchapp.com -->
    <title>003-skype</title>
    <desc>Created with Sketch.</desc>
    <g id="mobile" stroke="none" stroke-width="1" fill="none" fill-rule="evenodd">
        <g id="Mobile---Главная-Copy" transform="translate(-153.000000, -226.000000)" fill-rule="nonzero">
            <g id="Stacked-Group-4" transform="translate(123.000000, 226.000000)">
                <g id="003-skype" transform="translate(30.000000, 0.000000)">
                    <circle id="Oval" fill="#65A2D9" cx="10" cy="10" r="10"></circle>
                    <path d="M13.5266016,6.46261719 C11.4439062,6.24605469 9.33199219,5.16269531 7.44109375,6.56566406 C5.75757812,7.77777344 6.90234375,10 6.9696875,11.7508594 C7.01695312,12.4600781 6.8559375,13.0566406 6.59808594,13.6598828 L12.5935156,19.6596094 C16.0311719,18.7389453 18.7378906,16.0325391 19.6591797,12.5951562 L13.5266016,6.46261719 Z" id="Path" fill="#3A7CA5"></path>
                    <g id="Group" transform="translate(4.257812, 5.000000)" fill="#FFFFFF">
                        <path d="M11.0043359,5.87300781 C10.8226563,5.62191406 10.7385938,5.31535156 10.7388672,5.00558594 C10.7388672,5.00375 10.7388672,5.00195312 10.7388672,5.00011719 C10.7388672,2.24046875 8.50175781,0.003359375 5.74222656,0.003359375 C5.13839844,0.003359375 4.55992188,0.110820312 4.02429688,0.307148437 C3.73460938,0.413398437 3.41710938,0.43375 3.12003906,0.350117187 C2.85769531,0.27625 2.57726563,0.245 2.28683594,0.265078125 C1.06695313,0.3490625 0.0848828125,1.34878906 0.0216015625,2.57 C-0.008515625,3.15289062 0.166171875,3.69355469 0.480039063,4.1271875 C0.661523438,4.37828125 0.74578125,4.68484375 0.745507813,4.99480469 L0.745507813,5.00027344 C0.745507813,7.75980469 2.98246094,9.99691406 5.74214844,9.99691406 C6.34597656,9.99691406 6.92445313,9.88957031 7.46007813,9.693125 C7.74976563,9.586875 8.06726563,9.56652344 8.36433594,9.65015625 C8.62667969,9.72417969 8.90710938,9.75527344 9.19753906,9.73535156 C10.4174219,9.65144531 11.3994922,8.65164062 11.4627734,7.43050781 C11.4928906,6.84742187 11.3182031,6.30671875 11.0043359,5.87300781 L11.0043359,5.87300781 Z M5.92515625,4.10417969 C6.93261719,4.34382812 8.45503906,4.7059375 8.45503906,6.38296875 C8.45503906,7.20902344 8.04816406,7.83933594 7.30945313,8.1575 C6.78230469,8.38449219 6.185625,8.41515625 5.67140625,8.41515625 C4.09132813,8.41515625 3.09355469,7.18660156 3.05167969,7.13429687 C2.79289063,6.80980469 2.84617188,6.336875 3.17074219,6.07808594 C3.4953125,5.81929688 3.96824219,5.87257812 4.22695313,6.19714844 C4.22917969,6.19984375 4.82601563,6.88535156 5.67132813,6.91210938 C6.68917969,6.94429688 6.92175781,6.64148437 6.951875,6.38300781 C6.98863281,6.06726562 6.70777344,5.83554687 5.5771875,5.5665625 C4.61878906,5.33875 3.17050781,4.99425781 3.17050781,3.44980469 C3.17050781,2.96878906 3.36613281,1.39949219 5.88332031,1.39949219 C7.4728125,1.39949219 8.41113281,2.65085937 8.4503125,2.70414062 C8.69609375,3.03863281 8.62433594,3.50898437 8.28984375,3.75484375 C7.95691406,3.99960937 7.48945312,3.92964844 7.24265625,3.59921875 C7.22496094,3.57652344 6.68789062,2.97894531 5.88332031,2.90257812 C5.27464844,2.84472656 4.67363281,3.06433594 4.67363281,3.38855469 C4.67378906,3.73207031 4.84636719,3.84761719 5.92515625,4.10417969 L5.92515625,4.10417969 Z" id="Shape"></path>
                        <path d="M6.95203125,6.38296875 C6.985625,6.09480469 6.75425781,5.87664063 5.85445312,5.63628906 L5.85445312,6.91425781 C6.71773437,6.90632812 6.92378906,6.62519531 6.95203125,6.38296875 Z" id="Path"></path>
                    </g>
                    <path d="M15.2621484,10.8730078 C15.0804687,10.6219141 14.9963672,10.3153516 14.9966797,10.0055469 C14.9966797,10.0037109 14.9966797,10.0019141 14.9966797,10.0000781 C14.9966797,7.27804687 12.8197266,5.06601562 10.1122266,5.00613281 L10.1122266,6.4 C10.1221094,6.39992187 10.1312891,6.39945312 10.14125,6.39945312 C11.7307422,6.39945312 12.6690625,7.65082031 12.7082422,7.70410156 C12.9540234,8.03859375 12.8822656,8.50894531 12.5477734,8.75480469 C12.2148438,8.99957031 11.7473828,8.92960937 11.5005859,8.59917969 C11.4828906,8.57648437 10.9458203,7.97890625 10.14125,7.90253906 C10.1315625,7.90160156 10.1219141,7.90140625 10.1122266,7.90058594 L10.1122266,9.0871875 C10.1355078,9.09277344 10.15875,9.0984375 10.1829297,9.10414062 C11.1903906,9.34378906 12.7128125,9.70582031 12.7128125,11.3829297 C12.7128125,12.2089844 12.3059375,12.8392969 11.5672266,13.1574609 C11.1015625,13.3580078 10.5816406,13.4052734 10.1122266,13.4135547 L10.1122266,14.9941797 C10.6753906,14.9817187 11.2155859,14.8770703 11.7178125,14.6928906 C12.0075,14.5866406 12.325,14.5662891 12.6220703,14.6499219 C12.8844141,14.7239453 13.1648438,14.7550391 13.4552734,14.7351172 C14.6751563,14.6512109 15.6572266,13.6514062 15.7205078,12.4302734 C15.7507031,11.8474219 15.5760156,11.3067187 15.2621484,10.8730078 Z" id="Path" fill="#D1D1D1"></path>
                    <path d="M8.93160156,8.38855469 C8.93160156,8.724375 9.09707031,8.84242187 10.1122656,9.08722656 L10.1122656,7.900625 C9.51367188,7.85230469 8.93160156,8.06941406 8.93160156,8.38855469 Z" id="Path" fill="#FFFFFF"></path>
                </g>
            </g>
        </g>
    </g>
</svg>