<?xml version="1.0" encoding="UTF-8"?>
<svg width="20px" height="20px" viewBox="0 0 20 20" version="1.1" xmlns="http://www.w3.org/2000/svg" xmlns:xlink="http://www.w3.org/1999/xlink">
    <!-- Generator: Sketch 53.2 (72643) - https://sketchapp.com -->
    <title>001-viber</title>
    <desc>Created with Sketch.</desc>
    <g id="mobile" stroke="none" stroke-width="1" fill="none" fill-rule="evenodd">
        <g id="Mobile---Главная-Copy" transform="translate(-123.000000, -226.000000)" fill-rule="nonzero">
            <g id="Stacked-Group-4" transform="translate(123.000000, 226.000000)">
                <g id="001-viber">
                    <circle id="Oval" fill="#6F3FAA" cx="10" cy="10" r="10"></circle>
                    <path d="M14.3383203,5.48605469 C11.9042578,4.89816406 9.46585937,4.21050781 6.9696875,5.08417969 C5.35351562,5.69023437 5.35351562,7.44109375 5.42085937,8.92257812 C5.42085937,9.32660156 4.94949219,9.86535156 5.15148437,10.3367187 C5.55550781,11.6835156 5.89222656,13.0303125 7.30636719,13.7037109 C7.50839844,13.8383984 7.30636719,14.1077344 7.44105469,14.3097656 C7.37371094,14.3097656 7.23902344,14.3771094 7.23902344,14.4444531 C7.23902344,14.7672266 7.38386719,15.2609375 7.28765625,15.5792187 L11.5847656,19.8745312 C16.0023437,19.1710156 19.455,15.575 19.9407812,11.0885547 L14.3383203,5.48605469 Z" id="Path" fill="#512D84"></path>
                    <g id="Group" transform="translate(4.453125, 4.257812)" fill="#FFFFFF">
                        <path d="M10.8369922,2.77046875 L10.8337109,2.75726562 C10.5665234,1.67707031 9.36191406,0.518007813 8.25566406,0.276875 L8.24320312,0.274296875 C6.45390625,-0.06703125 4.63964844,-0.06703125 2.85074219,0.274296875 L2.83789062,0.276875 C1.73203125,0.518007813 0.527382812,1.67714844 0.25984375,2.75726562 L0.256875,2.77046875 C-0.0734375,4.27894531 -0.0734375,5.80878906 0.256875,7.31726562 L0.25984375,7.33046875 C0.516015625,8.36453125 1.63089844,9.47039062 2.69585937,9.77449219 L2.69585937,10.9802734 C2.69585937,11.4167187 3.22769531,11.6310547 3.53011719,11.3160937 L4.75179687,10.0462109 C5.01679687,10.0610156 5.28191406,10.0692969 5.54695312,10.0692969 C6.44761719,10.0692969 7.34871094,9.98410156 8.24316406,9.81347656 L8.255625,9.81089844 C9.361875,9.56976563 10.5664844,8.410625 10.8336719,7.33050781 L10.8369531,7.31730469 C11.1672656,5.80878906 11.1672656,4.27902344 10.8369922,2.77046875 Z M9.87015625,7.09855469 C9.69175781,7.80328125 8.77714844,8.679375 8.05042969,8.84125 C7.0990625,9.0221875 6.14011719,9.09949219 5.18214844,9.07296875 C5.16308594,9.07242187 5.14476562,9.07984375 5.13152344,9.09351563 C4.99554687,9.23304687 4.23953125,10.0092187 4.23953125,10.0092187 L3.29078125,10.9829688 C3.22140625,11.0553125 3.09953125,11.0060547 3.09953125,10.90625 L3.09953125,8.90875 C3.09953125,8.87574219 3.07597656,8.84773437 3.04355469,8.84132813 C3.04335938,8.84125 3.04320313,8.84125 3.04300781,8.84121094 C2.31628906,8.67933594 1.40199219,7.80324219 1.22328125,7.09851563 C0.925976563,5.735 0.925976563,4.35273437 1.22328125,2.98921875 C1.40199219,2.28449219 2.31628906,1.40839844 3.04300781,1.24652344 C4.70457031,0.930507813 6.38925781,0.930507813 8.05046875,1.24652344 C8.77753906,1.40839844 9.69179687,2.28449219 9.87019531,2.98921875 C10.1678125,4.35277344 10.1678125,5.73503906 9.87015625,7.09855469 Z" id="Shape"></path>
                        <path d="M7.12773438,8.02058594 C7.01601563,7.98664062 6.90957031,7.96386719 6.810625,7.92289062 C5.78597656,7.49777344 4.84300781,6.94933594 4.09609375,6.10867187 C3.67132813,5.630625 3.33886719,5.09089844 3.05785156,4.51972656 C2.92457031,4.24886719 2.81226562,3.96742187 2.69777344,3.68773437 C2.59339844,3.43273438 2.74714844,3.16929688 2.90902344,2.97710937 C3.0609375,2.79675781 3.25644531,2.65878906 3.46816406,2.55703125 C3.63339844,2.47765625 3.79636719,2.5234375 3.91707031,2.66347656 C4.17792969,2.96628906 4.41761719,3.28457031 4.61160156,3.63558594 C4.7309375,3.85148437 4.69820313,4.11539062 4.48191406,4.26230469 C4.42933594,4.29800781 4.38144531,4.33996094 4.3325,4.38027344 C4.28953125,4.415625 4.24914063,4.45132812 4.2196875,4.49917969 C4.16589844,4.58671875 4.16332031,4.69003906 4.19792969,4.78523438 C4.46460938,5.51808594 4.91410156,6.08800781 5.65179688,6.395 C5.76984375,6.44410156 5.88835938,6.50125 6.024375,6.48542969 C6.25210938,6.45882813 6.32585938,6.20898438 6.48546875,6.07847656 C6.64144531,5.9509375 6.84082031,5.94925781 7.00882813,6.05558594 C7.17691406,6.16199219 7.33980469,6.27613281 7.50175781,6.3915625 C7.66074219,6.50484375 7.81898438,6.61558594 7.96558594,6.74476562 C8.10660156,6.86894531 8.15515625,7.03183594 8.07574219,7.2003125 C7.93042969,7.50894531 7.71890625,7.765625 7.41386719,7.92953125 C7.32773437,7.97570312 7.22484375,7.99066406 7.12773438,8.02058594 C7.01601563,7.98664062 7.22484375,7.99066406 7.12773438,8.02058594 Z" id="Path"></path>
                        <path d="M5.54964844,2.20414062 C6.88984375,2.24171875 7.99066406,3.13113281 8.2265625,4.45613281 C8.26675781,4.68191406 8.28105469,4.91269531 8.29894531,5.141875 C8.30648438,5.23824219 8.251875,5.32980469 8.14789063,5.33109375 C8.04046875,5.33238281 7.99214844,5.24246094 7.98511719,5.14617187 C7.97132813,4.95546875 7.96175781,4.76386719 7.93546875,4.57480469 C7.79675781,3.57640625 7.00066406,2.75042969 6.00691406,2.57320312 C5.85734375,2.54652344 5.704375,2.53953125 5.55285156,2.52363281 C5.45710938,2.51359375 5.33171875,2.5078125 5.31050781,2.38875 C5.29273438,2.28894531 5.37695312,2.20949219 5.47199219,2.204375 C5.49773438,2.20285156 5.52371094,2.2040625 5.54964844,2.20414062 C6.88992188,2.24171875 5.52371094,2.2040625 5.54964844,2.20414062 Z" id="Path"></path>
                        <path d="M7.58640625,4.84449219 C7.58417969,4.86125 7.58304687,4.90058594 7.57320312,4.93761719 C7.53765625,5.07214844 7.33359375,5.08898437 7.28667969,4.95324219 C7.27273437,4.91296875 7.27066406,4.86710937 7.27058594,4.82375 C7.27011719,4.53992188 7.2084375,4.25632812 7.06527344,4.00933594 C6.918125,3.75546875 6.69328125,3.54214844 6.42964844,3.41296875 C6.27019531,3.33492188 6.0978125,3.28636719 5.92304687,3.2575 C5.84667969,3.24484375 5.76949219,3.23722656 5.69273437,3.22652344 C5.59972656,3.21359375 5.55003906,3.15433594 5.55449219,3.06269531 C5.55859375,2.97683594 5.62136719,2.915 5.71496094,2.92035156 C6.0225,2.93777344 6.31960937,3.00433594 6.59308594,3.14910156 C7.14910156,3.44359375 7.46675781,3.90835938 7.55949219,4.52902344 C7.56367188,4.5571875 7.57039063,4.585 7.57253906,4.61320313 C7.57777344,4.6828125 7.58109375,4.75253906 7.58640625,4.84449219 C7.58417969,4.86117188 7.58109375,4.75253906 7.58640625,4.84449219 Z" id="Path"></path>
                        <path d="M6.7528125,4.81203125 C6.64070313,4.8140625 6.58070313,4.75195312 6.56910156,4.64921875 C6.56109375,4.57757812 6.5546875,4.50492187 6.53757813,4.43515625 C6.50390625,4.29777344 6.43089844,4.17050781 6.31535156,4.08632812 C6.26082031,4.04660156 6.19898438,4.01765625 6.13425781,3.99890625 C6.05203125,3.97511719 5.9665625,3.98167969 5.88457031,3.96160156 C5.79546875,3.93976562 5.74617187,3.86757812 5.76019531,3.78402344 C5.77292969,3.70792969 5.84691406,3.64855469 5.93007812,3.65460937 C6.4496875,3.69210937 6.82105469,3.96074219 6.8740625,4.57246094 C6.87785156,4.615625 6.88222656,4.66121094 6.87265625,4.70257812 C6.85617187,4.77316406 6.80382813,4.80859375 6.7528125,4.81203125 C6.64066406,4.81402344 6.80382813,4.80859375 6.7528125,4.81203125 Z" id="Path"></path>
                    </g>
                    <path d="M15.2901172,7.02828125 L15.2868359,7.01507813 C15.1370703,6.40957031 14.6926172,5.77933594 14.1361328,5.29980469 L13.3838281,5.96652344 C13.8311719,6.32296875 14.2144531,6.81675781 14.3233594,7.24699219 C14.6210156,8.61054688 14.6210156,9.99277344 14.3233594,11.3563672 C14.1449609,12.0610937 13.2303125,12.9371875 12.5036328,13.0990625 C11.5522656,13.28 10.5933203,13.3573047 9.63535156,13.3307812 C9.61628906,13.3302344 9.59796875,13.3376563 9.58472656,13.3513281 C9.44875,13.4908594 8.69273438,14.2670313 8.69273438,14.2670313 L7.74398438,15.2407813 C7.67460937,15.313125 7.55273438,15.2639453 7.55273438,15.1640625 L7.55273438,13.1665625 C7.55273438,13.1335547 7.52917969,13.1055469 7.49675781,13.0991406 C7.4965625,13.0991406 7.49640625,13.0990625 7.49621094,13.0990625 C7.08320312,13.0070703 6.60980469,12.6842969 6.24511719,12.2935547 L5.50175781,12.9522656 C5.96601562,13.4573047 6.56480469,13.8655859 7.14894531,14.0323828 L7.14894531,15.2381641 C7.14894531,15.6746094 7.68078125,15.8889453 7.98320313,15.5739844 L9.20488281,14.3041016 C9.46988281,14.3189062 9.73492188,14.3271875 10.0000391,14.3271875 C10.9007031,14.3271875 11.8017969,14.2419922 12.69625,14.0713672 L12.7087109,14.0688281 C13.8149609,13.8276953 15.0195703,12.6686328 15.2867578,11.5884375 L15.2900391,11.5752344 C15.6203906,10.0666016 15.6203906,8.53683594 15.2901172,7.02828125 Z" id="Path" fill="#D1D1D1"></path>
                    <path d="M11.603034,12.3275668 C11.7637285,12.2509668 11.4181643,12.2406668 11.603034,12.3275668 L11.603034,12.3275668 Z" id="Path" fill="#FFFFFF"></path>
                    <path d="M12.4187891,11.0025 C12.2721875,10.8733984 12.1138672,10.7625781 11.9549609,10.6492969 C11.7930078,10.5338672 11.6301172,10.4197266 11.4620313,10.3133203 C11.2940234,10.2069922 11.0946875,10.2086719 10.9386719,10.3362109 C10.7790625,10.4667188 10.7053516,10.7165625 10.4775781,10.7431641 C10.3416016,10.7589844 10.2230469,10.7017969 10.105,10.6527344 C9.65113281,10.4639063 9.30675781,10.1751563 9.04648438,9.81058594 L8.49335938,10.3008203 C8.51214844,10.3225781 8.53007813,10.3449219 8.54917969,10.3664062 C9.29613281,11.2070703 10.2391406,11.7555078 11.2637109,12.180625 C11.3625781,12.2216406 11.4691016,12.2444531 11.5808203,12.2783203 C11.4691016,12.244375 11.6780078,12.2484375 11.5808203,12.2783203 C11.6780078,12.2484375 11.7808203,12.2333984 11.8670313,12.1872266 C12.1721484,12.0233203 12.3835938,11.7666016 12.5289063,11.4580078 C12.6083594,11.2895703 12.5598047,11.1266797 12.4187891,11.0025 Z" id="Path" fill="#D1D1D1"></path>
                    <g id="Group" transform="translate(9.960938, 6.406250)" fill="#FFFFFF">
                        <path d="M0.0907294792,0.477 C0.0878294792,0.477 0.0850294792,0.476 0.0821294792,0.476 C0.0793294792,0.475333333 0.0829294792,0.476 0.0907294792,0.477 Z" id="Path"></path>
                        <path d="M0.0630588235,0.475333333 C0.0647647059,0.475333333 0.0664117647,0.476333333 0.0681176471,0.476333333 C0.180117647,0.499 2.00176471,0.783333333 0.0630588235,0.475333333 Z" id="Path"></path>
                    </g>
                    <g id="Group" transform="translate(11.171875, 7.226562)" fill="#D1D1D1">
                        <path d="M0.753320313,0.0326953125 L0.5175,0.24171875 C0.888085938,0.602265625 1.14363281,1.08011719 1.21667969,1.60597656 C1.24292969,1.79511719 1.25257813,1.98664062 1.26636719,2.17734375 C1.27335938,2.27371094 1.32164063,2.36359375 1.42914063,2.36234375 C1.53316406,2.36105469 1.58773438,2.26953125 1.58019531,2.173125 C1.56226563,1.94398438 1.54800781,1.713125 1.5078125,1.48738281 C1.40457031,0.907382813 1.13554687,0.410859375 0.753320313,0.0326953125 Z" id="Path"></path>
                        <path d="M0.840664063,1.56011719 C0.773125,1.10785156 0.585507813,0.738789062 0.273867188,0.457617188 L0.0387109375,0.666015625 C0.1603125,0.773945313 0.265507813,0.900703125 0.346523438,1.04050781 C0.4896875,1.2875 0.551367188,1.57109375 0.551835938,1.85492187 C0.551914063,1.89828125 0.553984375,1.94414062 0.567929688,1.98449219 C0.614921875,2.1203125 0.81890625,2.10347656 0.854453125,1.96886719 C0.864296875,1.93175781 0.865429688,1.89242187 0.86765625,1.87574219 C0.865429688,1.8925 0.862265625,1.78382812 0.86765625,1.87574219 C0.862265625,1.78382812 0.858984375,1.7140625 0.853710938,1.644375 C0.851640625,1.61605469 0.844882813,1.58824219 0.840664063,1.56011719 Z" id="Path"></path>
                    </g>
                    <g id="Group" transform="translate(11.132812, 9.023438)" fill="#FFFFFF">
                        <path d="M0.998526408,0.673 C0.984926408,-0.111666667 0.992826408,0.815333333 0.998526408,0.673 L0.998526408,0.673 Z" id="Path"></path>
                        <path d="M0.11405,0.396 C0.11855,0.395 0.12285,0.387333333 0.12715,0.385666667 C0.11505,0.385666667 0.09645,0.386666667 0.07735,0.389 C0.08975,0.39 0.10105,0.396333333 0.11405,0.396 Z" id="Path"></path>
                        <path d="M0.135070151,0.396 C0.122549725,0.396666667 0.111485162,0.390333333 0.0994500241,0.389 C0.0391772755,0.394666667 -0.0230366244,0.405666667 0.135070151,0.396 Z" id="Path"></path>
                        <path d="M0.112699875,0.385666667 C0.108199875,0.387333333 0.103899875,0.395 0.099599875,0.396 C0.133199875,0.388333333 0.130299875,0.385666667 0.112699875,0.385666667 Z" id="Path"></path>
                    </g>
                    <path d="M10.9692969,8.10644531 L10.7299219,8.31863281 C10.743125,8.32664062 10.7560547,8.335 10.7685938,8.34410156 C10.8841406,8.42828125 10.9571484,8.55554688 10.9908203,8.69292969 C11.0079297,8.76269531 11.0142578,8.83527344 11.0223438,8.90699219 C11.0333984,9.00515625 11.0891406,9.06550781 11.1917188,9.06902344 C11.1991797,9.06882812 11.2065234,9.06867188 11.2111719,9.06863281 C11.2605469,9.06316406 11.3100391,9.02855469 11.3258594,8.96027344 C11.3354297,8.91898438 11.3310547,8.87332031 11.3272656,8.83015625 C11.2975,8.48816406 11.1682031,8.25351563 10.9692969,8.10644531 Z" id="Path" fill="#D1D1D1"></path>
                </g>
            </g>
        </g>
    </g>
</svg>