<?xml version="1.0" encoding="UTF-8"?>
<svg width="20px" height="20px" viewBox="0 0 20 20" version="1.1" xmlns="http://www.w3.org/2000/svg" xmlns:xlink="http://www.w3.org/1999/xlink">
    <!-- Generator: Sketch 53.2 (72643) - https://sketchapp.com -->
    <title>002-whatsapp</title>
    <desc>Created with Sketch.</desc>
    <g id="mobile" stroke="none" stroke-width="1" fill="none" fill-rule="evenodd">
        <g id="Mobile---Главная-Copy" transform="translate(-183.000000, -226.000000)" fill-rule="nonzero">
            <g id="Stacked-Group-4" transform="translate(123.000000, 226.000000)">
                <g id="002-whatsapp" transform="translate(60.000000, 0.000000)">
                    <circle id="Oval" fill="#75B73B" cx="10" cy="10" r="10"></circle>
                    <path d="M14.0719141,5.93070312 C13.4921094,5.78570312 12.6394531,5.28492187 12.0875391,5.08417969 C9.93265625,4.41078125 7.03703125,4.94949219 6.22894531,7.44109375 C6.16160156,7.5084375 6.02691406,7.5084375 5.95957031,7.5084375 C4.34339844,9.39394531 5.42085937,11.6835156 5.28617187,13.7710547 C5.24019531,14.5069531 4.85324219,15.1576562 4.35527344,15.7080859 L8.54597656,19.8944141 C9.02074219,19.9635547 9.50605469,20 10,20 C14.9389062,20 19.0410937,16.4193359 19.8533984,11.7124609 L14.0719141,5.93070312 Z" id="Path" fill="#52891D"></path>
                    <g id="Group" transform="translate(4.257812, 4.218750)" fill="#FFFFFF">
                        <path d="M5.46238281,0.0174609375 C2.414375,0.162460938 0.0091015625,2.70089844 0.01828125,5.75226562 C0.02109375,6.68164063 0.24546875,7.55886719 0.641328125,8.33410156 L0.0336328125,11.2838672 C0.00078125,11.4434766 0.1446875,11.5832031 0.303203125,11.545625 L3.19363281,10.8608594 C3.93625,11.2308203 4.77035156,11.4444141 5.65308594,11.4578906 C8.7684375,11.5055078 11.3660156,9.03191406 11.4632422,5.91769531 C11.5672266,2.57949219 8.81214844,-0.142109375 5.46238281,0.0174609375 L5.46238281,0.0174609375 Z M8.91132812,8.90375 C8.06488281,9.75019531 6.93933594,10.2164062 5.7421875,10.2164062 C5.04125,10.2164062 4.37007812,10.0591016 3.74742187,9.74898437 L3.345,9.5484375 L1.57273438,9.96824219 L1.94574219,8.15746094 L1.7475,7.7690625 C1.42421875,7.13601562 1.2603125,6.4515625 1.2603125,5.73453125 C1.2603125,4.53734375 1.72652344,3.41191406 2.57296875,2.56539062 C3.411875,1.72640625 4.55574219,1.25273437 5.74226562,1.25273437 C6.93929687,1.25273437 8.06484375,1.71894531 8.91128906,2.56539062 C9.75773437,3.41183594 10.2239453,4.53738281 10.2239453,5.73441406 C10.2240234,6.92097656 9.75027344,8.06480469 8.91132812,8.90375 L8.91132812,8.90375 Z" id="Shape"></path>
                        <path d="M8.52011719,6.97585937 L7.41136719,6.65753906 C7.26570313,6.61578125 7.10867187,6.65714844 7.00246094,6.76535156 L6.73128906,7.04152344 C6.61699219,7.15808594 6.44355469,7.19546875 6.29222656,7.13425781 C5.76773437,6.92199219 4.66441406,5.94097656 4.3828125,5.45042969 C4.30140625,5.30886719 4.31488281,5.13199219 4.41472656,5.00269531 L4.65136719,4.69648437 C4.74410156,4.5765625 4.76363281,4.41535156 4.70234375,4.27667969 L4.23589844,3.22167969 C4.12417969,2.96902344 3.80128906,2.89542969 3.5903125,3.07386719 C3.28089844,3.335625 2.91375,3.73324219 2.86917969,4.17386719 C2.79046875,4.95070312 3.12367187,5.92988281 4.38332031,7.10570312 C5.83867187,8.46421875 7.00417969,8.64355469 7.763125,8.45976562 C8.19355469,8.35558594 8.53753906,7.93769531 8.75449219,7.59546875 C8.90257812,7.36199219 8.78554688,7.05214844 8.52011719,6.97585937 L8.52011719,6.97585937 Z" id="Path"></path>
                    </g>
                    <g id="Group" transform="translate(4.296875, 5.742188)" fill="#D1D1D1">
                        <path d="M9.60953125,0.02765625 L8.74144531,0.917421875 C8.785625,0.958242187 8.82960937,0.999296875 8.87234375,1.04207031 C9.71882812,1.88851562 10.185,3.0140625 10.185,4.21109375 C10.185,5.39761719 9.71125,6.54140625 8.87234375,7.38039062 C8.02589844,8.22683594 6.90035156,8.69304687 5.70320313,8.69304687 C5.00226563,8.69304687 4.33113281,8.53574219 3.7084375,8.225625 L3.30601563,8.02507812 L1.53375,8.44488281 L1.57039062,8.26703125 L0.00109375,9.8753125 C0.035703125,9.97933594 0.145820312,10.0501172 0.264140625,10.0221094 L3.15457031,9.33734375 C3.8971875,9.70730469 4.73128906,9.92089844 5.61402344,9.934375 C8.729375,9.98199219 11.3270312,7.50839844 11.4241797,4.39417969 C11.4778906,2.67019531 10.7689844,1.11074219 9.60953125,0.02765625 Z" id="Path"></path>
                        <path d="M8.48105469,5.45242187 L7.37230469,5.13410156 C7.22664063,5.09234375 7.06960937,5.13371094 6.96339844,5.24191406 L6.69222656,5.51808594 C6.57792969,5.63464844 6.40449219,5.67203125 6.25316406,5.61082031 C5.95019531,5.48820312 5.45429687,5.1090625 5.035,4.71613281 L4.26421875,5.50617188 C4.29066406,5.53148438 4.31703125,5.55675781 4.34429687,5.58226562 C5.79964844,6.94078125 6.96515625,7.12011719 7.72410156,6.93632812 C8.15453125,6.83214844 8.49851562,6.41425781 8.71546875,6.07203125 C8.86351563,5.83855469 8.74648438,5.52871094 8.48105469,5.45242187 Z" id="Path"></path>
                    </g>
                </g>
            </g>
        </g>
    </g>
</svg>