<?xml version="1.0" encoding="UTF-8" standalone="no"?>
<!DOCTYPE svg PUBLIC "-//W3C//DTD SVG 1.1//EN" "http://www.w3.org/Graphics/SVG/1.1/DTD/svg11.dtd">
<svg width="100%" height="100%" viewBox="0 0 116 24" version="1.1" xmlns="http://www.w3.org/2000/svg" xmlns:xlink="http://www.w3.org/1999/xlink" xml:space="preserve" xmlns:serif="http://www.serif.com/" style="fill-rule:evenodd;clip-rule:evenodd;stroke-linejoin:round;stroke-miterlimit:2;">
    <g transform="matrix(0.930573,0,0,0.930573,5.00132,1.78908)">
        <g>
            <g transform="matrix(1,0,0,1,96.189,0)">
                <path d="M0.85,18.595L0.586,18.369C-0.057,17.82 -0.17,16.819 0.416,16.176L7.294,8.315C7.843,7.672 8.844,7.559 9.487,8.145L9.751,8.372C10.394,8.92 10.507,9.922 9.921,10.564L3.043,18.425C2.494,19.068 1.531,19.143 0.85,18.595Z" style="fill:url(#_Linear1);"/>
            </g>
            <g transform="matrix(1,0,0,1,96.189,0)">
                <path d="M6.369,9.676L6.236,9.524L5.178,10.734L5.291,10.866C7.106,12.68 6.331,14.513 5.915,15.156L6.066,14.986C6.312,14.702 6.69,14.268 7.086,13.796C7.502,13.077 8.088,11.376 6.369,9.676Z" style="fill:url(#_Linear2);"/>
            </g>
            <g transform="matrix(1,0,0,1,96.189,0)">
                <path d="M8.636,12.038L8.92,11.717C8.939,11.679 8.976,11.641 8.995,11.603C8.693,11.943 8.372,12.303 8.069,12.661C8.296,12.416 8.485,12.208 8.636,12.038Z" style="fill:url(#_Radial3);"/>
            </g>
            <g transform="matrix(1,0,0,1,96.189,0)">
                <path d="M9.96,8.56L3.08,0.7C2.532,0.056 1.53,-0.058 0.888,0.53L0.624,0.755C-0.019,1.303 -0.132,2.305 0.454,2.947L6.255,9.523L6.387,9.675C8.107,11.395 7.521,13.095 7.087,13.813C7.427,13.416 7.767,13.019 8.088,12.66C8.391,12.301 8.712,11.942 9.014,11.602C9.317,11.262 9.6,10.941 9.789,10.732C10.45,10.09 10.545,9.202 9.959,8.56L9.96,8.56Z" style="fill:url(#_Linear4);"/>
            </g>
            <g>
                <g transform="matrix(1,0,0,1,104.882,0)">
                    <path d="M0.888,18.595L0.624,18.369C-0.019,17.82 -0.132,16.819 0.454,16.176L7.332,8.315C7.88,7.672 8.882,7.559 9.524,8.145L9.789,8.372C10.431,8.92 10.545,9.922 9.959,10.564L3.08,18.425C2.532,19.068 1.569,19.143 0.888,18.595Z" style="fill:url(#_Linear5);"/>
                </g>
                <g transform="matrix(1,0,0,1,104.882,0)">
                    <path d="M6.482,9.6L6.35,9.449L5.291,10.659L5.405,10.791C7.219,12.605 6.445,14.438 6.028,15.081L6.18,14.911C6.425,14.627 6.803,14.192 7.2,13.72C7.616,13.002 8.202,11.3 6.482,9.6Z" style="fill:url(#_Linear6);"/>
                </g>
                <g transform="matrix(1,0,0,1,104.882,0)">
                    <path d="M8.655,12.038L8.939,11.717C8.957,11.679 8.995,11.641 9.014,11.603C8.712,11.943 8.391,12.303 8.088,12.661C8.315,12.416 8.523,12.208 8.655,12.038Z" style="fill:url(#_Radial7);"/>
                </g>
                <g transform="matrix(1,0,0,1,104.882,0)">
                    <path d="M9.978,8.56L3.099,0.7C2.551,0.056 1.55,-0.058 0.907,0.53L0.643,0.755C0,1.304 -0.113,2.306 0.473,2.948L6.274,9.524L6.406,9.676C8.126,11.396 7.54,13.096 7.106,13.814C7.446,13.417 7.786,13.02 8.107,12.661C8.409,12.302 8.731,11.943 9.033,11.603C9.335,11.263 9.619,10.942 9.808,10.733C10.469,10.091 10.564,9.203 9.978,8.561L9.978,8.56Z" style="fill:url(#_Linear8);"/>
                </g>
            </g>
        </g>
        <path d="M30.539,0.076C32.334,0.076 33.921,0.472 35.244,1.228C36.586,2.022 37.606,3.137 38.324,4.554C39.043,5.991 39.402,7.691 39.402,9.638C39.402,11.735 38.986,13.568 38.135,15.061C37.304,16.573 36.095,17.669 34.526,18.369C35.339,18.633 36,19.238 36.548,20.126L37.493,21.543C37.682,21.865 37.795,22.167 37.795,22.488C37.795,22.885 37.645,23.225 37.323,23.471C37.002,23.717 36.623,23.868 36.208,23.868C35.887,23.868 35.584,23.792 35.301,23.641C35.036,23.49 34.791,23.263 34.601,22.98L33.052,20.41C32.806,19.994 32.485,19.691 32.088,19.502C31.691,19.313 31.181,19.2 30.538,19.2C28.706,19.2 27.137,18.803 25.795,18.047C24.454,17.254 23.433,16.139 22.715,14.721C21.997,13.266 21.638,11.565 21.638,9.638C21.638,7.691 22.016,6.009 22.715,4.554C23.433,3.118 24.472,2.022 25.795,1.228C27.137,0.435 28.705,0.076 30.54,0.076L30.539,0.076ZM75.799,0.094C76.252,0.094 76.611,0.284 76.932,0.68L82.356,7.408L87.76,0.68C88.08,0.302 88.478,0.113 88.931,0.113C89.328,0.113 89.687,0.265 90.008,0.586C90.33,0.907 90.481,1.247 90.481,1.701C90.481,2.041 90.349,2.4 90.084,2.721L84.056,10.072L84.056,17.424C84.056,17.972 83.905,18.387 83.583,18.709C83.262,19.029 82.865,19.162 82.373,19.162C81.863,19.162 81.429,19.011 81.108,18.709C80.786,18.406 80.635,17.991 80.635,17.424L80.635,10.072L74.645,2.702C74.38,2.382 74.248,2.041 74.248,1.682C74.248,1.266 74.399,0.888 74.72,0.567C75.042,0.246 75.42,0.094 75.797,0.094L75.799,0.094ZM51.269,0.246C53.272,0.246 54.822,0.737 55.937,1.757C57.052,2.74 57.619,4.157 57.619,5.953C57.619,7.748 57.052,9.165 55.937,10.167C54.822,11.187 53.272,11.679 51.269,11.679L46.526,11.679L46.526,17.386C46.526,17.934 46.375,18.35 46.054,18.652C45.732,18.973 45.317,19.124 44.787,19.124C44.277,19.106 43.843,18.954 43.559,18.634C43.238,18.312 43.087,17.896 43.087,17.367L43.087,1.852C43.087,1.342 43.237,0.945 43.54,0.662C43.843,0.397 44.24,0.246 44.75,0.246L51.27,0.246L51.269,0.246ZM16.403,0.094C16.913,0.094 17.367,0.246 17.669,0.567C17.991,0.888 18.142,1.285 18.142,1.795L18.142,17.367C18.142,17.877 17.991,18.312 17.669,18.633C17.348,18.954 16.932,19.106 16.403,19.106C15.912,19.106 15.496,18.954 15.175,18.633C14.854,18.312 14.702,17.896 14.702,17.367L14.702,1.795C14.702,1.285 14.854,0.888 15.175,0.567C15.496,0.246 15.893,0.094 16.403,0.094ZM66.444,0.076C66.822,0.076 67.162,0.17 67.484,0.34C67.804,0.53 68.05,0.794 68.22,1.153L75.572,16.894C75.647,17.14 75.704,17.348 75.704,17.594C75.704,17.991 75.534,18.331 75.213,18.634C74.891,18.898 74.513,19.049 74.079,19.049C73.814,19.049 73.531,18.973 73.285,18.822C73.039,18.671 72.831,18.425 72.699,18.122L71.093,14.57L61.795,14.57L60.189,18.123C60.038,18.444 59.849,18.671 59.603,18.822C59.357,18.973 59.093,19.049 58.791,19.049C58.394,19.049 57.997,18.898 57.676,18.633C57.336,18.369 57.184,18.009 57.184,17.593C57.184,17.367 57.241,17.121 57.335,16.894L64.668,1.153C64.818,0.813 65.065,0.529 65.405,0.34C65.726,0.151 66.066,0.076 66.445,0.076L66.444,0.076ZM1.72,0.113C2.23,0.113 2.683,0.265 2.986,0.586C3.307,0.907 3.458,1.304 3.458,1.814L3.458,16.157L10.885,16.157C11.943,16.157 12.491,16.63 12.491,17.556C12.491,18.482 11.943,18.954 10.885,18.954L1.625,18.954C1.115,18.954 0.718,18.804 0.435,18.52C0.17,18.255 0.019,17.858 0.019,17.367L0.019,1.814C0.019,1.304 0.17,0.907 0.491,0.586C0.813,0.265 1.21,0.113 1.72,0.113ZM30.5,2.76C28.762,2.76 27.42,3.346 26.457,4.518C25.493,5.708 25.002,7.371 25.002,9.601C25.002,11.831 25.492,13.494 26.457,14.684C27.42,15.875 28.781,16.461 30.501,16.461C32.221,16.461 33.562,15.875 34.526,14.684C35.49,13.494 35.981,11.794 35.981,9.601C35.981,7.371 35.49,5.708 34.526,4.518C33.562,3.327 32.239,2.76 30.501,2.76L30.5,2.76ZM66.444,4.064L62.948,11.925L69.959,11.925L66.444,4.064ZM50.834,2.91L46.526,2.91L46.526,9.052L50.835,9.071C53.178,9.071 54.369,8.031 54.369,5.991C54.369,3.95 53.178,2.911 50.835,2.911L50.834,2.91Z"/>
    </g>
    <defs>
        <linearGradient id="_Linear1" x1="0" y1="0" x2="1" y2="0" gradientUnits="userSpaceOnUse" gradientTransform="matrix(7.74861,-5.31292,5.31292,7.74861,1.29558,16.0246)"><stop offset="0" style="stop-color:rgb(31,173,195);stop-opacity:1"/><stop offset="0.71" style="stop-color:rgb(54,185,143);stop-opacity:1"/><stop offset="1" style="stop-color:rgb(54,185,143);stop-opacity:1"/></linearGradient>
        <linearGradient id="_Linear2" x1="0" y1="0" x2="1" y2="0" gradientUnits="userSpaceOnUse" gradientTransform="matrix(0.283164,-1.35731,1.35731,0.283164,6.30363,11.6688)"><stop offset="0" style="stop-color:rgb(18,63,6);stop-opacity:0"/><stop offset="1" style="stop-color:rgb(18,63,6);stop-opacity:0.4"/></linearGradient>
        <radialGradient id="_Radial3" cx="0" cy="0" r="1" gradientUnits="userSpaceOnUse" gradientTransform="matrix(5.2645,0,0,4.60644,4.84533,13.0193)"><stop offset="0" style="stop-color:rgb(18,63,6);stop-opacity:0"/><stop offset="0.42" style="stop-color:rgb(18,63,6);stop-opacity:0"/><stop offset="1" style="stop-color:rgb(18,63,6);stop-opacity:0.4"/></radialGradient>
        <linearGradient id="_Linear4" x1="0" y1="0" x2="1" y2="0" gradientUnits="userSpaceOnUse" gradientTransform="matrix(6.04787,6.54101,-6.54101,6.04787,1.65951,3.44822)"><stop offset="0" style="stop-color:rgb(159,219,87);stop-opacity:1"/><stop offset="1" style="stop-color:rgb(113,202,94);stop-opacity:1"/></linearGradient>
        <linearGradient id="_Linear5" x1="0" y1="0" x2="1" y2="0" gradientUnits="userSpaceOnUse" gradientTransform="matrix(7.74836,-5.31292,5.31292,7.74836,1.32656,16.0294)"><stop offset="0" style="stop-color:rgb(31,173,195);stop-opacity:1"/><stop offset="0.71" style="stop-color:rgb(54,185,143);stop-opacity:1"/><stop offset="1" style="stop-color:rgb(54,185,143);stop-opacity:1"/></linearGradient>
        <linearGradient id="_Linear6" x1="0" y1="0" x2="1" y2="0" gradientUnits="userSpaceOnUse" gradientTransform="matrix(0.283271,-1.35731,1.35731,0.283271,6.41705,11.5938)"><stop offset="0" style="stop-color:rgb(18,63,6);stop-opacity:0"/><stop offset="1" style="stop-color:rgb(18,63,6);stop-opacity:0.4"/></linearGradient>
        <radialGradient id="_Radial7" cx="0" cy="0" r="1" gradientUnits="userSpaceOnUse" gradientTransform="matrix(5.2645,0,0,4.60644,4.87211,13.0193)"><stop offset="0" style="stop-color:rgb(18,63,6);stop-opacity:0"/><stop offset="0.42" style="stop-color:rgb(18,63,6);stop-opacity:0"/><stop offset="1" style="stop-color:rgb(18,63,6);stop-opacity:0.4"/></radialGradient>
        <linearGradient id="_Linear8" x1="0" y1="0" x2="1" y2="0" gradientUnits="userSpaceOnUse" gradientTransform="matrix(6.04787,6.54149,-6.54149,6.04787,1.6817,3.45187)"><stop offset="0" style="stop-color:rgb(159,219,87);stop-opacity:1"/><stop offset="1" style="stop-color:rgb(113,202,94);stop-opacity:1"/></linearGradient>
    </defs>
</svg>
