<svg enable-background="new 0 0 180.2 202.5" viewBox="0 0 180.2 202.5" xmlns="http://www.w3.org/2000/svg" xmlns:xlink="http://www.w3.org/1999/xlink"><linearGradient id="a" gradientUnits="userSpaceOnUse" x1="0" x2="163" y1="132" y2="132"><stop offset=".1966" stop-color="#d0dcf1" stop-opacity=".7"/><stop offset=".4155" stop-color="#d6e1f3" stop-opacity=".5"/><stop offset=".7162" stop-color="#e8eef8" stop-opacity=".5"/><stop offset="1" stop-color="#fff" stop-opacity="0"/></linearGradient><path d="m19 178.5h124v12h-124z" fill="#1b3554"/><path d="m20 14.5h124v79h-124z" fill="#e7eaf3"/><path d="m20 14.5v120h-20v-72.6l10-15.4z" fill="#bdc5d1"/><path d="m143 14.5v120h20v-72.6l-10-15.4z" fill="#bdc5d1"/><path d="m0 61.5h163v136c0 2.8-2.2 5-5 5h-153c-2.8 0-5-2.2-5-5z" fill="#fff"/><path d="m0 61.5h163v136c0 2.8-2.2 5-5 5h-153c-2.8 0-5-2.2-5-5z" fill="url(#a)" opacity=".5"/><g fill="#97a4af"><path d="m49 120.8c.2-2.8 2-5.3 4.6-6.3l3-.9 5.1 1.7c1.3.5 2.2 1.8 2.3 3.2-.2 1.1-1.2 1.8-2.3 1.7l-5.2-1.7-5.2 1.7c-1.1.2-2.1-.6-2.3-1.7z"/><path d="m100 120.8c.2-2.8 2-5.3 4.6-6.3l3-.9 5.1 1.7c1.3.5 2.2 1.8 2.3 3.2-.2 1.1-1.2 1.8-2.3 1.7l-5.2-1.7-5.2 1.7c-1.1.2-2.1-.6-2.3-1.7z"/><path d="m82 144.5c8.8 0 16-5.2 16-14-16-.1-19.4.3-32 0 0 8.8 7.2 14 16 14z"/></g><circle cx="45" cy="76.5" fill="#e7eaf3" r="6"/><circle cx="118" cy="76.5" fill="#e7eaf3" r="6"/><path d="m45 76.2v-37.2c0-20.2 16.3-36.5 36.5-36.5s36.5 16.3 36.5 36.5v37.2" style="fill:none;stroke:#97a4af;stroke-width:5;stroke-linecap:round;stroke-linejoin:round;stroke-miterlimit:10"/><circle cx="162.3" cy="175.7" fill="#377dff" r="17.6"/><path d="m167.4 175.7c0 2.5-.4 4.4-1.2 5.6s-2.1 1.8-3.8 1.8-2.9-.6-3.8-1.9c-.8-1.3-1.3-3.1-1.3-5.5 0-2.6.4-4.4 1.2-5.6s2.1-1.8 3.8-1.8 2.9.6 3.8 1.9c.8 1.3 1.3 3.1 1.3 5.5zm-7.1 0c0 1.8.2 3 .5 3.8s.8 1.2 1.5 1.2 1.2-.4 1.5-1.2.5-2 .5-3.8-.2-3-.5-3.8-.8-1.2-1.5-1.2-1.2.4-1.5 1.2-.5 2.1-.5 3.8z" fill="#fff"/></svg>