<svg width="1126" height="421" viewBox="0 0 1126 421" fill="none" xmlns="http://www.w3.org/2000/svg">
<path d="M296 162L91 368.572H223.206V421H370.5V368.572H503L296 162Z" fill="#FF9E00"/>
<path d="M553.5 363.5L443.5 254H580C587 254 592.5 252.5 592.5 246.5V218.5H700C700 218.5 701 294.5 681 319.5C661 344.5 640 355 622 359C604 363 553.5 363.5 553.5 363.5Z" fill="#000AC8"/>
<path d="M1119.5 75.9995C1128.5 97.9995 1125.5 139 1125.5 139H1017V116C1017 109.797 1006 108.499 1003 108.5H841.5C830.001 108.5 830.501 117.999 830.5 121.5C830.5 124.36 830.5 194.993 830.5 224.549V237C830.5 243.999 833.501 253.999 841.5 253.999H1003C1018.5 253.999 1017 249.5 1017 246V218.5H1125.5C1125.5 218.5 1127.5 253.5 1123.5 271.5C1121.4 280.929 1115.02 301.59 1101 319.5C1088.26 335.78 1066.2 346.766 1044.5 354C1020.5 362 977 362.5 940.5 362.5C895.5 362.5 830.289 362.752 807.5 355.999C780.501 347.999 753 343 731.5 284.499C722.112 258.956 725.347 217.512 726 178C726.841 127.018 727.275 79.2515 731.5 72.9995C734.879 67.9997 748 8.49963 825 2.49958C859.145 -0.16104 897.918 2.67248 934 2.49958C979.287 2.28257 1020.62 0.151042 1046.5 8.49958C1093 23.4997 1110.5 53.9996 1119.5 75.9995Z" fill="#000AC8"/>
<path d="M0 363.992V1.9925H113V138.993L250 1.9925C250 1.9925 571.5 -1.96878 610.5 4.99891C632.833 8.98932 651.468 23.0138 660.5 29.5002C715.5 68.9996 699 138.993 699 138.993H591V123.5C591 123.5 592.5 104.992 583.5 104.992C558.5 104.992 297 105.5 297 105.5L38.5 363.992H0Z" fill="#000AC8"/>
<path d="M404.5 146H335.5L404.5 214.5V146Z" fill="#000AC8"/>
</svg>
