<?xml version="1.0" encoding="utf-8"?>
<!-- Generator: Adobe Illustrator 23.0.5, SVG Export Plug-In . SVG Version: 6.00 Build 0)  -->
<svg version="1.1" id="Layer_1" xmlns="http://www.w3.org/2000/svg" xmlns:xlink="http://www.w3.org/1999/xlink" x="0px" y="0px"
	 viewBox="0 0 122.9 65.8" style="enable-background:new 0 0 122.9 65.8;" xml:space="preserve">
<style type="text/css">
	.st0{fill-rule:evenodd;clip-rule:evenodd;fill:#CC760D;}
	.st1{fill-rule:evenodd;clip-rule:evenodd;fill:#0F69D4;}
</style>
<path class="st0" d="M13.4,31.3C-8.9,43.5,51,50.9,64.5,50.8v-7.4l11.2,11.2L64.5,65.8v-7c-27.1,1-90.9-16.4-52.5-30.9
	c0.4,1.1,0.8,2.2,1.3,3.2L13.4,31.3L13.4,31.3z"/>
<path class="st1" d="M26.5,10.5l-9-1.6c0.8-2.9,2.2-5.1,4.3-6.6s5.1-2.3,9-2.3c4.5,0,7.7,0.8,9.7,2.5s3,3.8,3,6.3
	c0,1.5-0.4,2.8-1.2,4s-2,2.3-3.7,3.2c1.3,0.3,2.3,0.7,3,1.1c1.1,0.7,2,1.6,2.7,2.8c0.6,1.1,1,2.5,1,4.1c0,2-0.5,3.9-1.6,5.8
	c-1,1.8-2.5,3.2-4.5,4.2s-4.5,1.5-7.7,1.5c-3.1,0-5.6-0.4-7.4-1.1c-1.8-0.7-3.3-1.8-4.4-3.2c-1.2-1.4-2-3.2-2.7-5.3l9.5-1.3
	c0.4,1.9,1,3.3,1.7,4c0.8,0.7,1.8,1.1,3,1.1c1.3,0,2.3-0.5,3.2-1.4s1.3-2.2,1.3-3.7c0-1.6-0.4-2.8-1.2-3.7s-1.9-1.3-3.3-1.3
	c-0.7,0-1.8,0.2-3.1,0.6l0.5-6.8c0.5,0.1,0.9,0.1,1.2,0.1c1.2,0,2.3-0.4,3.1-1.2s1.2-1.7,1.2-2.8S33.8,7.6,33.2,7
	c-0.6-0.6-1.5-0.9-2.5-0.9c-1.1,0-2,0.3-2.7,1C27.2,7.6,26.7,8.8,26.5,10.5L26.5,10.5z"/>
<path class="st1" d="M72.8,15.3C70.6,13.1,68.1,12,65,12c-1.6,0-3,0.2-4.2,0.8c-1.2,0.6-2.4,1.4-3.5,2.6c0.3-3.7,0.8-6.1,1.4-7.2
	c0.9-1.5,2.1-2.3,3.6-2.3c0.9,0,1.6,0.3,2.2,0.8c0.5,0.6,0.9,1.5,1.2,2.8l9.5-1.2c-0.6-1.9-1.4-3.4-2.4-4.6c-1-1.2-2.3-2.2-3.9-2.8
	C67.3,0.3,65.1,0,62.4,0c-4.7,0-8.3,1.4-10.8,4.3c-2.6,2.9-3.9,7.4-3.9,13.6c0,4.2,0.6,7.6,1.9,10.2c1.3,2.6,2.9,4.4,5,5.6
	c2.1,1.2,4.9,1.8,8.3,1.8c2.8,0,5.2-0.4,7.1-1.4c1.8-1,3.3-2.4,4.4-4.3c1.1-1.9,1.6-3.9,1.6-6.2C76,20.3,74.9,17.5,72.8,15.3z
	 M65.5,28.1c-0.8,0.9-1.8,1.4-3.1,1.4c-1.3,0-2.5-0.6-3.4-1.6c-0.9-1.1-1.4-2.5-1.4-4.4c0-1.8,0.5-3.2,1.3-4.1c0.9-1,2-1.5,3.3-1.5
	s2.4,0.5,3.3,1.5s1.3,2.5,1.3,4.4C66.8,25.7,66.3,27.2,65.5,28.1z"/>
<path class="st1" d="M104.9,9.5c-0.3-1.3-0.8-2.5-1.3-3.5s-1.3-2-2.2-2.9c-0.9-0.9-2.1-1.6-3.6-2.2C96.3,0.3,94.4,0,92.1,0
	c-4.8,0-8.3,1.3-10.7,3.9c-2.3,2.6-3.5,7.2-3.5,13.7c0,2.6,0.2,5,0.6,7.2s1.1,3.9,1.9,5.2c1.2,1.7,2.6,3.1,4.4,4
	c1.8,0.9,4.1,1.4,7,1.4c5.2,0,8.8-1.4,10.9-4.3c2.1-2.8,3.2-7.4,3.2-13.6C105.9,14.7,105.5,12.1,104.9,9.5z M96,24.7
	c-0.4,1.4-0.9,2.5-1.6,3.2c-0.7,0.7-1.5,1-2.5,1c-1.5,0-2.6-0.8-3.4-2.4c-0.8-1.6-1.2-4.5-1.2-8.9c0-4.3,0.4-7.3,1.1-8.9
	c0.7-1.6,1.8-2.4,3.4-2.4c1.6,0,2.7,0.7,3.5,2.3s1.2,4.7,1.2,9.2C96.5,20.9,96.3,23.2,96,24.7z"/>
<path class="st1" d="M119.2,5c-0.1-0.5-0.3-1-0.5-1.4s-0.5-0.8-0.9-1.2c-0.3-0.4-0.8-0.7-1.4-0.9c-0.6-0.2-1.4-0.3-2.3-0.3
	c-1.9,0-3.4,0.5-4.3,1.6c-0.9,1.1-1.4,2.9-1.4,5.5c0,1.1,0,2,0.1,2.8c0.2,0.9,0.5,1.6,0.8,2.1c0.5,0.7,1.1,1.2,1.8,1.6
	c0.7,0.4,1.6,0.6,2.8,0.6c2.1,0,3.6-0.6,4.4-1.7c0.9-1.2,1.3-3,1.3-5.5C119.6,7.1,119.5,6,119.2,5z M115.5,11.2
	c-0.1,0.6-0.3,1-0.6,1.3c-0.3,0.3-0.6,0.4-1,0.4c-0.5,0-1-0.4-1.3-1c-0.3-0.7-0.5-1.8-0.5-3.6c0-1.7,0.2-2.9,0.3-3.4
	c0.3-0.7,0.8-1,1.4-1c0.6,0,1.1,0.3,1.4,0.9c0.3,0.6,0.5,1.9,0.5,3.7C115.7,9.7,115.6,10.6,115.5,11.2z"/>
<path class="st0" d="M109.3,30.2c10.6,5.4,8,13-10.7,17.6c-5.3,1.3-11.3,2.5-17.9,3v6c7.3-0.5,14.1-2.2,20.1-3.6
	c28.1-6.8,27.1-19,9.4-25.8C109.9,28.4,109.7,29.3,109.3,30.2L109.3,30.2z"/>
</svg>
